<svg xmlns="http://www.w3.org/2000/svg" xmlns:xlink="http://www.w3.org/1999/xlink" version="1.1" viewBox="0.0 0.0 960.0 540.0" fill="none" stroke="none" stroke-linecap="square" stroke-miterlimit="10"><clipPath id="g4478fbe96_167.0"><path d="m0 0l960.0 0l0 540.0l-960.0 0l0 -540.0z" clip-rule="nonzero"/></clipPath><g clip-path="url(#g4478fbe96_167.0)"><path fill="#000000" fill-opacity="0.0" d="m884.5667 500.7241l24.0 0l0 29.081024l-24.0 0z" fill-rule="nonzero"/><path fill="#000000" fill-opacity="0.0" d="m-5.2624674 501.04987l960.0 0l0 47.24408l-960.0 0z" fill-rule="nonzero"/><a xlink:href="https://www.google.com/url?q=https%3A%2F%2Fgithub.com%2Flucasrudi%2Fcollective_jukebox&amp;sa=D&amp;sntz=1&amp;usg=AFQjCNFGHljH42sy2rinRdle8wFh2_sunw" target="_blank"><path fill="transparent" fill-opacity="0" d="m283.57498 517.4532l0 -20.84375l421.91568 0l0 20.84375z" fill-rule="evenodd"/></a><a xlink:href="https://www.google.com/url?q=https%3A%2F%2Fgithub.com%2Flucasrudi%2Fcollective_jukebox&amp;sa=D&amp;sntz=1&amp;usg=AFQjCNFGHljH42sy2rinRdle8wFh2_sunw" target="_blank"><path fill="transparent" fill-opacity="0" d="m710.67395 517.4532l0 -20.84375l0 0l0 20.84375z" fill-rule="evenodd"/></a><path fill="#000000" fill-opacity="0.0" d="m735.3635 368.01706l200.85828 0l0 56.637817l-200.85828 0z" fill-rule="nonzero"/><path fill="#000000" fill-opacity="0.0" d="m406.49893 357.31635l150.81339 0l0 47.24411l-150.81339 0z" fill-rule="nonzero"/><path fill="#000000" fill-opacity="0.0" d="m313.45145 20.637672l150.81357 0l0 45.479004l-150.81357 0z" fill-rule="nonzero"/><path fill="#000000" fill-opacity="0.0" d="m211.24855 190.9578l168.50392 0" fill-rule="nonzero"/><path stroke="#080808" stroke-width="4.0" stroke-linejoin="round" stroke-linecap="butt" d="m211.24855 190.9578l144.50392 0" fill-rule="evenodd"/><path fill="#080808" stroke="#080808" stroke-width="4.0" stroke-linecap="butt" d="m355.75247 197.56473l18.152374 -6.6069336l-18.152374 -6.6069183z" fill-rule="evenodd"/><path fill="#000000" fill-opacity="0.0" d="m211.24855 257.55786l168.50392 0" fill-rule="nonzero"/><path stroke="#080808" stroke-width="4.0" stroke-linejoin="round" stroke-linecap="butt" d="m235.24855 257.55786l144.50392 0" fill-rule="evenodd"/><path fill="#080808" stroke="#080808" stroke-width="4.0" stroke-linecap="butt" d="m235.24855 250.95094l-18.15239 6.6069183l18.15239 6.6069336z" fill-rule="evenodd"/><path fill="#000000" fill-opacity="0.0" d="m576.7548 257.55786l168.50397 0" fill-rule="nonzero"/><path stroke="#080808" stroke-width="4.0" stroke-linejoin="round" stroke-linecap="butt" d="m600.7548 257.55786l144.50397 0" fill-rule="evenodd"/><path fill="#080808" stroke="#080808" stroke-width="4.0" stroke-linecap="butt" d="m600.7548 250.95094l-18.152344 6.6069183l18.152344 6.6069336z" fill-rule="evenodd"/><path fill="#000000" fill-opacity="0.0" d="m583.6253 198.19537l168.50397 0" fill-rule="nonzero"/><path stroke="#080808" stroke-width="4.0" stroke-linejoin="round" stroke-linecap="butt" d="m583.6253 198.19537l144.50397 0" fill-rule="evenodd"/><path fill="#080808" stroke="#080808" stroke-width="4.0" stroke-linecap="butt" d="m728.1293 204.8023l18.152405 -6.6069336l-18.152405 -6.6069336z" fill-rule="evenodd"/><path fill="#d9d9d9" d="m391.12643 107.36479l184.50394 0l0 236.85039l-184.50394 0z" fill-rule="nonzero"/><path fill="#000000" d="m463.71967 188.70999l0 -0.796875l0.0625 0q0.296875 0 0.546875 -0.03125q0.25 -0.046875 0.421875 -0.171875q0.171875 -0.125 0.265625 -0.359375q0.109375 -0.25 0.125 -0.640625l0 -10.140625l-4.34375 12.140625l-1.03125 0l-4.40625 -12.109375l0 9.953125q0 0.4375 0.09375 0.71875q0.09375 0.265625 0.265625 0.40625q0.1875 0.140625 0.4375 0.1875q0.25 0.046875 0.578125 0.046875l0.046875 0l0 0.796875l-4.390625 0l0 -0.796875l0.25 0q0.3125 0 0.59375 -0.03125q0.28125 -0.046875 0.484375 -0.171875q0.21875 -0.140625 0.34375 -0.390625q0.140625 -0.265625 0.140625 -0.671875l0 -9.40625q0 -0.421875 -0.140625 -0.671875q-0.125 -0.265625 -0.34375 -0.40625q-0.203125 -0.140625 -0.484375 -0.171875q-0.28125 -0.046875 -0.59375 -0.046875l-0.25 0l0 -0.796875l4.34375 0l3.921875 10.859375l3.90625 -10.859375l4.203125 0l0 0.796875l-0.234375 0q-0.328125 0 -0.609375 0.046875q-0.28125 0.046875 -0.5 0.1875q-0.203125 0.140625 -0.328125 0.421875q-0.125 0.265625 -0.125 0.703125l0 9.25q0 0.4375 0.125 0.71875q0.125 0.265625 0.328125 0.40625q0.21875 0.140625 0.5 0.1875q0.28125 0.046875 0.609375 0.046875l0.234375 0l0 0.796875l-5.046875 0zm15.468109 -2.0625q0 0.40625 0.125 0.671875q0.125 0.25 0.328125 0.390625q0.21875 0.125 0.5 0.171875q0.28125 0.03125 0.59375 0.03125l0.0625 0l0 0.796875l-3.015625 0l-0.25 -1.546875l-0.09375 0q-0.28125 0.546875 -0.640625 0.890625q-0.34375 0.328125 -0.734375 0.515625q-0.390625 0.1875 -0.8125 0.25q-0.421875 0.078125 -0.890625 0.078125q-0.75 0 -1.34375 -0.203125q-0.578125 -0.21875 -0.984375 -0.671875q-0.390625 -0.46875 -0.609375 -1.171875q-0.203125 -0.703125 -0.203125 -1.671875l0 -4.5625q0 -0.40625 -0.125 -0.65625q-0.125 -0.265625 -0.34375 -0.40625q-0.203125 -0.140625 -0.484375 -0.1875q-0.28125 -0.046875 -0.609375 -0.046875l-0.046875 0l0 -0.796875l3.40625 0l0 6.5625q0 0.625 0.09375 1.109375q0.09375 0.46875 0.3125 0.8125q0.234375 0.328125 0.625 0.5q0.390625 0.171875 0.953125 0.171875q0.640625 0 1.078125 -0.21875q0.453125 -0.21875 0.75 -0.625q0.296875 -0.40625 0.4375 -0.96875q0.140625 -0.578125 0.140625 -1.25l0 -3.921875q0 -0.453125 -0.125 -0.71875q-0.125 -0.28125 -0.34375 -0.421875q-0.203125 -0.140625 -0.484375 -0.1875q-0.28125 -0.046875 -0.609375 -0.046875l-0.0625 0l0 -0.796875l3.40625 0l0 8.125zm5.811096 2.25q-0.703125 0 -1.296875 -0.125q-0.578125 -0.125 -0.984375 -0.375q-0.40625 -0.265625 -0.625 -0.640625q-0.21875 -0.375 -0.21875 -0.875q0 -0.375 0.125 -0.625q0.125 -0.265625 0.296875 -0.40625q0.1875 -0.15625 0.390625 -0.21875q0.21875 -0.0625 0.375 -0.0625q0 0.5 0.09375 0.9375q0.109375 0.4375 0.34375 0.765625q0.25 0.328125 0.640625 0.53125q0.40625 0.1875 0.96875 0.1875q0.515625 0 0.90625 -0.125q0.390625 -0.125 0.65625 -0.34375q0.265625 -0.234375 0.40625 -0.546875q0.140625 -0.328125 0.140625 -0.71875q0 -0.34375 -0.109375 -0.59375q-0.109375 -0.265625 -0.375 -0.484375q-0.265625 -0.21875 -0.71875 -0.453125q-0.453125 -0.234375 -1.140625 -0.53125q-0.734375 -0.328125 -1.28125 -0.625q-0.53125 -0.3125 -0.890625 -0.65625q-0.34375 -0.359375 -0.53125 -0.796875q-0.171875 -0.453125 -0.171875 -1.078125q0 -0.65625 0.25 -1.15625q0.265625 -0.5 0.734375 -0.828125q0.46875 -0.34375 1.125 -0.515625q0.65625 -0.1875 1.46875 -0.1875q0.671875 0 1.1875 0.140625q0.53125 0.140625 0.875 0.375q0.359375 0.234375 0.53125 0.5625q0.1875 0.3125 0.1875 0.671875q0 0.515625 -0.359375 0.828125q-0.359375 0.3125 -1.015625 0.3125q0 -0.953125 -0.40625 -1.484375q-0.390625 -0.53125 -1.234375 -0.53125q-0.484375 0 -0.828125 0.109375q-0.34375 0.109375 -0.5625 0.328125q-0.203125 0.203125 -0.3125 0.484375q-0.09375 0.265625 -0.09375 0.609375q0 0.359375 0.125 0.625q0.125 0.265625 0.40625 0.484375q0.28125 0.21875 0.734375 0.4375q0.453125 0.203125 1.078125 0.453125q0.75 0.328125 1.28125 0.640625q0.546875 0.296875 0.890625 0.65625q0.359375 0.359375 0.515625 0.8125q0.171875 0.453125 0.171875 1.046875q0 0.75 -0.265625 1.3125q-0.265625 0.546875 -0.765625 0.921875q-0.484375 0.375 -1.1875 0.5625q-0.6875 0.1875 -1.53125 0.1875zm5.1203003 -0.984375q0.3125 0 0.59375 -0.03125q0.28125 -0.046875 0.5 -0.171875q0.21875 -0.140625 0.34375 -0.390625q0.125 -0.265625 0.125 -0.671875l0 -6.03125q0 -0.40625 -0.125 -0.65625q-0.125 -0.265625 -0.34375 -0.40625q-0.21875 -0.140625 -0.5 -0.1875q-0.28125 -0.046875 -0.59375 -0.046875l-0.0625 0l0 -0.796875l3.40625 0l0 8.03125q0 0.4375 0.125 0.71875q0.125 0.265625 0.328125 0.40625q0.203125 0.140625 0.484375 0.1875q0.296875 0.046875 0.609375 0.046875l0.25 0l0 0.796875l-5.390625 0l0 -0.796875l0.25 0zm1.28125 -12.46875q0 -0.328125 0.078125 -0.546875q0.09375 -0.234375 0.234375 -0.375q0.15625 -0.140625 0.34375 -0.1875q0.203125 -0.0625 0.4375 -0.0625q0.21875 0 0.40625 0.0625q0.203125 0.046875 0.34375 0.1875q0.15625 0.140625 0.234375 0.375q0.09375 0.21875 0.09375 0.546875q0 0.328125 -0.09375 0.5625q-0.078125 0.21875 -0.234375 0.359375q-0.140625 0.140625 -0.34375 0.203125q-0.1875 0.046875 -0.40625 0.046875q-0.234375 0 -0.4375 -0.046875q-0.1875 -0.0625 -0.34375 -0.203125q-0.140625 -0.140625 -0.234375 -0.359375q-0.078125 -0.234375 -0.078125 -0.5625zm9.372955 13.453125q-0.9375 0 -1.734375 -0.296875q-0.796875 -0.296875 -1.375 -0.921875q-0.578125 -0.625 -0.90625 -1.609375q-0.3125 -1.0 -0.3125 -2.390625q0 -1.53125 0.3125 -2.546875q0.328125 -1.03125 0.890625 -1.65625q0.578125 -0.625 1.34375 -0.875q0.78125 -0.265625 1.6875 -0.265625q0.59375 0 1.171875 0.125q0.59375 0.109375 1.0625 0.359375q0.484375 0.234375 0.78125 0.609375q0.296875 0.359375 0.296875 0.84375q0 0.65625 -0.4375 0.9375q-0.421875 0.265625 -1.265625 0.265625q0 -0.453125 -0.078125 -0.84375q-0.0625 -0.40625 -0.25 -0.703125q-0.171875 -0.296875 -0.484375 -0.46875q-0.3125 -0.171875 -0.796875 -0.171875q-0.546875 0 -1.0 0.203125q-0.4375 0.203125 -0.75 0.703125q-0.3125 0.5 -0.484375 1.34375q-0.15625 0.84375 -0.15625 2.109375q0 2.03125 0.671875 3.03125q0.671875 0.984375 2.203125 0.984375q0.875 0 1.53125 -0.375q0.65625 -0.375 0.984375 -0.953125q0.140625 0.109375 0.234375 0.296875q0.09375 0.1875 0.09375 0.4375q0 0.328125 -0.203125 0.65625q-0.203125 0.328125 -0.609375 0.59375q-0.40625 0.25 -1.015625 0.40625q-0.59375 0.171875 -1.40625 0.171875zm6.604248 -2.9375q0 0.890625 0.375 1.328125q0.375 0.4375 1.15625 0.4375q0.578125 0 1.046875 -0.1875q0.46875 -0.1875 0.796875 -0.53125q0.328125 -0.34375 0.5 -0.828125q0.1875 -0.5 0.1875 -1.09375l0 -1.546875l-1.21875 0.0625q-0.8125 0.03125 -1.359375 0.203125q-0.53125 0.15625 -0.875 0.453125q-0.328125 0.28125 -0.46875 0.71875q-0.140625 0.421875 -0.140625 0.984375zm2.296875 -6.671875q-0.546875 0 -0.890625 0.15625q-0.328125 0.140625 -0.53125 0.421875q-0.1875 0.28125 -0.25 0.671875q-0.0625 0.375 -0.0625 0.8125q-0.796875 0 -1.203125 -0.265625q-0.40625 -0.265625 -0.40625 -0.921875q0 -0.5 0.265625 -0.84375q0.265625 -0.34375 0.734375 -0.5625q0.46875 -0.21875 1.09375 -0.3125q0.625 -0.109375 1.328125 -0.109375q0.875 0 1.515625 0.171875q0.65625 0.171875 1.078125 0.5625q0.4375 0.390625 0.65625 1.015625q0.21875 0.625 0.21875 1.53125l0 4.9375q0 0.390625 0.0625 0.65625q0.078125 0.25 0.21875 0.421875q0.140625 0.15625 0.359375 0.21875q0.234375 0.0625 0.546875 0.0625l0.046875 0l0 0.796875l-2.5625 0l-0.296875 -1.640625l-0.15625 0q-0.296875 0.40625 -0.578125 0.75q-0.28125 0.328125 -0.625 0.578125q-0.328125 0.234375 -0.75 0.359375q-0.421875 0.140625 -1.015625 0.140625q-0.625 0 -1.171875 -0.1875q-0.53125 -0.171875 -0.9375 -0.546875q-0.390625 -0.375 -0.609375 -0.9375q-0.21875 -0.578125 -0.21875 -1.359375q0 -1.515625 1.0625 -2.25q1.078125 -0.734375 3.265625 -0.796875l1.578125 -0.0625l0 -1.140625q0 -0.5 -0.0625 -0.9375q-0.046875 -0.4375 -0.234375 -0.734375q-0.1875 -0.3125 -0.546875 -0.484375q-0.34375 -0.171875 -0.921875 -0.171875z" fill-rule="nonzero"/><path fill="#000000" d="m428.2013 232.70999l0 -0.796875l0.25 0q0.328125 0 0.609375 -0.046875q0.28125 -0.046875 0.484375 -0.1875q0.21875 -0.140625 0.34375 -0.40625q0.125 -0.28125 0.125 -0.71875l0 -9.3125q0 -0.421875 -0.140625 -0.671875q-0.125 -0.265625 -0.34375 -0.40625q-0.203125 -0.140625 -0.484375 -0.171875q-0.28125 -0.046875 -0.59375 -0.046875l-0.25 0l0 -0.796875l5.34375 0q1.1875 0 2.0625 0.28125q0.890625 0.265625 1.46875 0.78125q0.578125 0.515625 0.859375 1.25q0.28125 0.734375 0.28125 1.65625q0 0.84375 -0.265625 1.625q-0.265625 0.78125 -0.875 1.375q-0.59375 0.59375 -1.578125 0.953125q-0.96875 0.359375 -2.375 0.359375l-1.203125 0l0 3.21875q0 0.40625 0.125 0.671875q0.125 0.25 0.34375 0.390625q0.21875 0.125 0.5 0.171875q0.28125 0.03125 0.59375 0.03125l0.640625 0l0 0.796875l-5.921875 0zm3.71875 -6.171875l1.015625 0q0.859375 0 1.46875 -0.1875q0.625 -0.1875 1.015625 -0.578125q0.390625 -0.40625 0.5625 -1.046875q0.1875 -0.640625 0.1875 -1.53125q0 -0.796875 -0.15625 -1.390625q-0.15625 -0.59375 -0.515625 -0.984375q-0.359375 -0.390625 -0.921875 -0.578125q-0.546875 -0.1875 -1.359375 -0.1875l-1.296875 0l0 6.484375zm12.940308 6.171875l-5.484375 0l0 -0.796875l0.0625 0q0.328125 0 0.609375 -0.046875q0.28125 -0.046875 0.484375 -0.1875q0.21875 -0.140625 0.34375 -0.40625q0.125 -0.28125 0.125 -0.71875l0 -5.9375q0 -0.40625 -0.125 -0.65625q-0.125 -0.265625 -0.34375 -0.40625q-0.21875 -0.140625 -0.5 -0.1875q-0.28125 -0.046875 -0.59375 -0.046875l-0.0625 0l0 -0.796875l2.921875 0l0.375 1.890625l0.09375 0q0.171875 -0.4375 0.359375 -0.8125q0.203125 -0.375 0.484375 -0.65625q0.296875 -0.28125 0.703125 -0.4375q0.421875 -0.171875 1.046875 -0.171875q1.046875 0 1.546875 0.359375q0.515625 0.359375 0.515625 1.03125q0 0.296875 -0.109375 0.546875q-0.09375 0.25 -0.3125 0.4375q-0.203125 0.171875 -0.546875 0.265625q-0.328125 0.09375 -0.8125 0.09375q0 -0.78125 -0.21875 -1.125q-0.21875 -0.359375 -0.78125 -0.359375q-0.359375 0 -0.640625 0.203125q-0.265625 0.203125 -0.484375 0.53125q-0.203125 0.328125 -0.34375 0.765625q-0.140625 0.421875 -0.234375 0.875q-0.09375 0.4375 -0.125 0.890625q-0.03125 0.4375 -0.03125 0.796875l0 3.0q0 0.40625 0.125 0.671875q0.125 0.25 0.328125 0.390625q0.21875 0.125 0.5 0.171875q0.28125 0.03125 0.59375 0.03125l0.53125 0l0 0.796875zm7.900055 -9.359375q-1.046875 0 -1.625 0.859375q-0.5625 0.859375 -0.671875 2.515625l4.375 0q0 -0.75 -0.125 -1.375q-0.109375 -0.625 -0.34375 -1.0625q-0.234375 -0.453125 -0.640625 -0.6875q-0.390625 -0.25 -0.96875 -0.25zm0.234375 9.546875q-1.03125 0 -1.859375 -0.34375q-0.8125 -0.359375 -1.375 -1.015625q-0.5625 -0.671875 -0.875 -1.640625q-0.296875 -0.96875 -0.296875 -2.203125q0 -2.671875 1.09375 -4.015625q1.09375 -1.34375 3.125 -1.34375q0.90625 0 1.640625 0.296875q0.734375 0.28125 1.25 0.859375q0.515625 0.5625 0.78125 1.421875q0.28125 0.84375 0.28125 1.96875l0 0.859375l-6.328125 0q0.015625 1.046875 0.203125 1.796875q0.1875 0.734375 0.546875 1.21875q0.359375 0.484375 0.875 0.71875q0.515625 0.21875 1.203125 0.21875q0.484375 0 0.90625 -0.109375q0.421875 -0.109375 0.765625 -0.296875q0.34375 -0.1875 0.609375 -0.421875q0.265625 -0.234375 0.4375 -0.5q0.125 0.0625 0.234375 0.234375q0.125 0.171875 0.125 0.421875q0 0.28125 -0.203125 0.609375q-0.203125 0.328125 -0.625 0.609375q-0.421875 0.28125 -1.046875 0.46875q-0.625 0.1875 -1.46875 0.1875zm10.921509 -0.984375l0 0.796875l-5.875 0l0 -0.796875l0.25 0q0.3125 0 0.59375 -0.046875q0.296875 -0.046875 0.5 -0.1875q0.203125 -0.140625 0.328125 -0.40625q0.125 -0.28125 0.125 -0.71875l0 -7.125l-1.734375 0l0 -0.90625l1.734375 0l0 -0.953125q0 -0.84375 0.234375 -1.484375q0.234375 -0.65625 0.671875 -1.09375q0.4375 -0.453125 1.0625 -0.671875q0.625 -0.234375 1.390625 -0.234375q0.75 0 1.25 0.09375q0.515625 0.09375 0.828125 0.28125q0.3125 0.171875 0.453125 0.421875q0.140625 0.234375 0.140625 0.53125q0 0.25 -0.125 0.453125q-0.109375 0.203125 -0.328125 0.34375q-0.203125 0.125 -0.484375 0.203125q-0.28125 0.0625 -0.625 0.0625q0 -0.296875 -0.0625 -0.5625q-0.0625 -0.28125 -0.203125 -0.484375q-0.140625 -0.21875 -0.390625 -0.34375q-0.234375 -0.140625 -0.59375 -0.140625q-0.40625 0 -0.6875 0.171875q-0.265625 0.15625 -0.4375 0.46875q-0.171875 0.296875 -0.25 0.765625q-0.0625 0.453125 -0.0625 1.046875l0 1.125l2.6875 0l0 0.90625l-2.6875 0l0 7.125q0 0.4375 0.125 0.71875q0.125 0.265625 0.328125 0.40625q0.21875 0.140625 0.5 0.1875q0.296875 0.046875 0.609375 0.046875l0.734375 0zm5.714905 -8.5625q-1.046875 0 -1.625 0.859375q-0.5625 0.859375 -0.671875 2.515625l4.375 0q0 -0.75 -0.125 -1.375q-0.109375 -0.625 -0.34375 -1.0625q-0.234375 -0.453125 -0.640625 -0.6875q-0.390625 -0.25 -0.96875 -0.25zm0.234375 9.546875q-1.03125 0 -1.859375 -0.34375q-0.8125 -0.359375 -1.375 -1.015625q-0.5625 -0.671875 -0.875 -1.640625q-0.296875 -0.96875 -0.296875 -2.203125q0 -2.671875 1.09375 -4.015625q1.09375 -1.34375 3.125 -1.34375q0.90625 0 1.640625 0.296875q0.734375 0.28125 1.25 0.859375q0.515625 0.5625 0.78125 1.421875q0.28125 0.84375 0.28125 1.96875l0 0.859375l-6.328125 0q0.015625 1.046875 0.203125 1.796875q0.1875 0.734375 0.546875 1.21875q0.359375 0.484375 0.875 0.71875q0.515625 0.21875 1.203125 0.21875q0.484375 0 0.90625 -0.109375q0.421875 -0.109375 0.765625 -0.296875q0.34375 -0.1875 0.609375 -0.421875q0.265625 -0.234375 0.4375 -0.5q0.125 0.0625 0.234375 0.234375q0.125 0.171875 0.125 0.421875q0 0.28125 -0.203125 0.609375q-0.203125 0.328125 -0.625 0.609375q-0.421875 0.28125 -1.046875 0.46875q-0.625 0.1875 -1.46875 0.1875zm10.640259 -0.1875l-5.484375 0l0 -0.796875l0.0625 0q0.328125 0 0.609375 -0.046875q0.28125 -0.046875 0.484375 -0.1875q0.21875 -0.140625 0.34375 -0.40625q0.125 -0.28125 0.125 -0.71875l0 -5.9375q0 -0.40625 -0.125 -0.65625q-0.125 -0.265625 -0.34375 -0.40625q-0.21875 -0.140625 -0.5 -0.1875q-0.28125 -0.046875 -0.59375 -0.046875l-0.0625 0l0 -0.796875l2.921875 0l0.375 1.890625l0.09375 0q0.171875 -0.4375 0.359375 -0.8125q0.203125 -0.375 0.484375 -0.65625q0.296875 -0.28125 0.703125 -0.4375q0.421875 -0.171875 1.046875 -0.171875q1.046875 0 1.546875 0.359375q0.515625 0.359375 0.515625 1.03125q0 0.296875 -0.109375 0.546875q-0.09375 0.25 -0.3125 0.4375q-0.203125 0.171875 -0.546875 0.265625q-0.328125 0.09375 -0.8125 0.09375q0 -0.78125 -0.21875 -1.125q-0.21875 -0.359375 -0.78125 -0.359375q-0.359375 0 -0.640625 0.203125q-0.265625 0.203125 -0.484375 0.53125q-0.203125 0.328125 -0.34375 0.765625q-0.140625 0.421875 -0.234375 0.875q-0.09375 0.4375 -0.125 0.890625q-0.03125 0.4375 -0.03125 0.796875l0 3.0q0 0.40625 0.125 0.671875q0.125 0.25 0.328125 0.390625q0.21875 0.125 0.5 0.171875q0.28125 0.03125 0.59375 0.03125l0.53125 0l0 0.796875zm7.9000244 -9.359375q-1.046875 0 -1.625 0.859375q-0.5625 0.859375 -0.671875 2.515625l4.375 0q0 -0.75 -0.125 -1.375q-0.109375 -0.625 -0.34375 -1.0625q-0.234375 -0.453125 -0.640625 -0.6875q-0.390625 -0.25 -0.96875 -0.25zm0.234375 9.546875q-1.03125 0 -1.859375 -0.34375q-0.8125 -0.359375 -1.375 -1.015625q-0.5625 -0.671875 -0.875 -1.640625q-0.296875 -0.96875 -0.296875 -2.203125q0 -2.671875 1.09375 -4.015625q1.09375 -1.34375 3.125 -1.34375q0.90625 0 1.640625 0.296875q0.734375 0.28125 1.25 0.859375q0.515625 0.5625 0.78125 1.421875q0.28125 0.84375 0.28125 1.96875l0 0.859375l-6.328125 0q0.015625 1.046875 0.203125 1.796875q0.1875 0.734375 0.546875 1.21875q0.359375 0.484375 0.875 0.71875q0.515625 0.21875 1.203125 0.21875q0.484375 0 0.90625 -0.109375q0.421875 -0.109375 0.765625 -0.296875q0.34375 -0.1875 0.609375 -0.421875q0.265625 -0.234375 0.4375 -0.5q0.125 0.0625 0.234375 0.234375q0.125 0.171875 0.125 0.421875q0 0.28125 -0.203125 0.609375q-0.203125 0.328125 -0.625 0.609375q-0.421875 0.28125 -1.046875 0.46875q-0.625 0.1875 -1.46875 0.1875zm10.171509 -0.984375l0 0.796875l-5.109375 0l0 -0.796875l0.15625 0q0.328125 0 0.609375 -0.046875q0.28125 -0.046875 0.484375 -0.1875q0.21875 -0.140625 0.34375 -0.40625q0.125 -0.28125 0.125 -0.71875l0 -5.9375q0 -0.40625 -0.125 -0.65625q-0.125 -0.265625 -0.34375 -0.40625q-0.21875 -0.140625 -0.5 -0.1875q-0.28125 -0.046875 -0.59375 -0.046875l-0.0625 0l0 -0.796875l3.078125 0l0.25 1.546875l0.09375 0q0.296875 -0.53125 0.625 -0.875q0.328125 -0.34375 0.6875 -0.53125q0.375 -0.1875 0.78125 -0.25q0.421875 -0.078125 0.875 -0.078125q0.75 0 1.328125 0.21875q0.59375 0.21875 1.0 0.671875q0.421875 0.453125 0.640625 1.15625q0.21875 0.703125 0.21875 1.671875l0 4.5q0 0.4375 0.109375 0.71875q0.109375 0.265625 0.296875 0.40625q0.203125 0.140625 0.46875 0.1875q0.265625 0.046875 0.578125 0.046875l0.078125 0l0 0.796875l-3.3125 0l0 -6.5625q0 -0.625 -0.125 -1.09375q-0.109375 -0.484375 -0.359375 -0.8125q-0.234375 -0.34375 -0.640625 -0.515625q-0.390625 -0.171875 -0.96875 -0.171875q-0.65625 0 -1.09375 0.25q-0.4375 0.25 -0.703125 0.6875q-0.265625 0.421875 -0.390625 0.984375q-0.109375 0.546875 -0.109375 1.15625l0 4.015625q0 0.40625 0.125 0.671875q0.125 0.25 0.328125 0.390625q0.21875 0.125 0.5 0.171875q0.28125 0.03125 0.59375 0.03125l0.0625 0zm11.768036 0.984375q-0.9375 0 -1.734375 -0.296875q-0.796875 -0.296875 -1.375 -0.921875q-0.578125 -0.625 -0.90625 -1.609375q-0.3125 -1.0 -0.3125 -2.390625q0 -1.53125 0.3125 -2.546875q0.328125 -1.03125 0.890625 -1.65625q0.578125 -0.625 1.34375 -0.875q0.78125 -0.265625 1.6875 -0.265625q0.59375 0 1.171875 0.125q0.59375 0.109375 1.0625 0.359375q0.484375 0.234375 0.78125 0.609375q0.296875 0.359375 0.296875 0.84375q0 0.65625 -0.4375 0.9375q-0.421875 0.265625 -1.265625 0.265625q0 -0.453125 -0.078125 -0.84375q-0.0625 -0.40625 -0.25 -0.703125q-0.171875 -0.296875 -0.484375 -0.46875q-0.3125 -0.171875 -0.796875 -0.171875q-0.546875 0 -1.0 0.203125q-0.4375 0.203125 -0.75 0.703125q-0.3125 0.5 -0.484375 1.34375q-0.15625 0.84375 -0.15625 2.109375q0 2.03125 0.671875 3.03125q0.671875 0.984375 2.203125 0.984375q0.875 0 1.53125 -0.375q0.65625 -0.375 0.984375 -0.953125q0.140625 0.109375 0.234375 0.296875q0.09375 0.1875 0.09375 0.4375q0 0.328125 -0.203125 0.65625q-0.203125 0.328125 -0.609375 0.59375q-0.40625 0.25 -1.015625 0.40625q-0.59375 0.171875 -1.40625 0.171875zm4.494873 -0.984375q0.3125 0 0.59375 -0.03125q0.28125 -0.046875 0.5 -0.171875q0.21875 -0.140625 0.34375 -0.390625q0.125 -0.265625 0.125 -0.671875l0 -6.03125q0 -0.40625 -0.125 -0.65625q-0.125 -0.265625 -0.34375 -0.40625q-0.21875 -0.140625 -0.5 -0.1875q-0.28125 -0.046875 -0.59375 -0.046875l-0.0625 0l0 -0.796875l3.40625 0l0 8.03125q0 0.4375 0.125 0.71875q0.125 0.265625 0.328125 0.40625q0.203125 0.140625 0.484375 0.1875q0.296875 0.046875 0.609375 0.046875l0.25 0l0 0.796875l-5.390625 0l0 -0.796875l0.25 0zm1.28125 -12.46875q0 -0.328125 0.078125 -0.546875q0.09375 -0.234375 0.234375 -0.375q0.15625 -0.140625 0.34375 -0.1875q0.203125 -0.0625 0.4375 -0.0625q0.21875 0 0.40625 0.0625q0.203125 0.046875 0.34375 0.1875q0.15625 0.140625 0.234375 0.375q0.09375 0.21875 0.09375 0.546875q0 0.328125 -0.09375 0.5625q-0.078125 0.21875 -0.234375 0.359375q-0.140625 0.140625 -0.34375 0.203125q-0.1875 0.046875 -0.40625 0.046875q-0.234375 0 -0.4375 -0.046875q-0.1875 -0.0625 -0.34375 -0.203125q-0.140625 -0.140625 -0.234375 -0.359375q-0.078125 -0.234375 -0.078125 -0.5625zm6.794861 10.515625q0 0.890625 0.375 1.328125q0.375 0.4375 1.15625 0.4375q0.578125 0 1.046875 -0.1875q0.46875 -0.1875 0.796875 -0.53125q0.328125 -0.34375 0.5 -0.828125q0.1875 -0.5 0.1875 -1.09375l0 -1.546875l-1.21875 0.0625q-0.8125 0.03125 -1.359375 0.203125q-0.53125 0.15625 -0.875 0.453125q-0.328125 0.28125 -0.46875 0.71875q-0.140625 0.421875 -0.140625 0.984375zm2.296875 -6.671875q-0.546875 0 -0.890625 0.15625q-0.328125 0.140625 -0.53125 0.421875q-0.1875 0.28125 -0.25 0.671875q-0.0625 0.375 -0.0625 0.8125q-0.796875 0 -1.203125 -0.265625q-0.40625 -0.265625 -0.40625 -0.921875q0 -0.5 0.265625 -0.84375q0.265625 -0.34375 0.734375 -0.5625q0.46875 -0.21875 1.09375 -0.3125q0.625 -0.109375 1.328125 -0.109375q0.875 0 1.515625 0.171875q0.65625 0.171875 1.078125 0.5625q0.4375 0.390625 0.65625 1.015625q0.21875 0.625 0.21875 1.53125l0 4.9375q0 0.390625 0.0625 0.65625q0.078125 0.25 0.21875 0.421875q0.140625 0.15625 0.359375 0.21875q0.234375 0.0625 0.546875 0.0625l0.046875 0l0 0.796875l-2.5625 0l-0.296875 -1.640625l-0.15625 0q-0.296875 0.40625 -0.578125 0.75q-0.28125 0.328125 -0.625 0.578125q-0.328125 0.234375 -0.75 0.359375q-0.421875 0.140625 -1.015625 0.140625q-0.625 0 -1.171875 -0.1875q-0.53125 -0.171875 -0.9375 -0.546875q-0.390625 -0.375 -0.609375 -0.9375q-0.21875 -0.578125 -0.21875 -1.359375q0 -1.515625 1.0625 -2.25q1.078125 -0.734375 3.265625 -0.796875l1.578125 -0.0625l0 -1.140625q0 -0.5 -0.0625 -0.9375q-0.046875 -0.4375 -0.234375 -0.734375q-0.1875 -0.3125 -0.546875 -0.484375q-0.34375 -0.171875 -0.921875 -0.171875zm9.39386 9.609375q-0.703125 0 -1.296875 -0.125q-0.578125 -0.125 -0.984375 -0.375q-0.40625 -0.265625 -0.625 -0.640625q-0.21875 -0.375 -0.21875 -0.875q0 -0.375 0.125 -0.625q0.125 -0.265625 0.296875 -0.40625q0.1875 -0.15625 0.390625 -0.21875q0.21875 -0.0625 0.375 -0.0625q0 0.5 0.09375 0.9375q0.109375 0.4375 0.34375 0.765625q0.25 0.328125 0.640625 0.53125q0.40625 0.1875 0.96875 0.1875q0.515625 0 0.90625 -0.125q0.390625 -0.125 0.65625 -0.34375q0.265625 -0.234375 0.40625 -0.546875q0.140625 -0.328125 0.140625 -0.71875q0 -0.34375 -0.109375 -0.59375q-0.109375 -0.265625 -0.375 -0.484375q-0.265625 -0.21875 -0.71875 -0.453125q-0.453125 -0.234375 -1.140625 -0.53125q-0.734375 -0.328125 -1.28125 -0.625q-0.53125 -0.3125 -0.890625 -0.65625q-0.34375 -0.359375 -0.53125 -0.796875q-0.171875 -0.453125 -0.171875 -1.078125q0 -0.65625 0.25 -1.15625q0.265625 -0.5 0.734375 -0.828125q0.46875 -0.34375 1.125 -0.515625q0.65625 -0.1875 1.46875 -0.1875q0.671875 0 1.1875 0.140625q0.53125 0.140625 0.875 0.375q0.359375 0.234375 0.53125 0.5625q0.1875 0.3125 0.1875 0.671875q0 0.515625 -0.359375 0.828125q-0.359375 0.3125 -1.015625 0.3125q0 -0.953125 -0.40625 -1.484375q-0.390625 -0.53125 -1.234375 -0.53125q-0.484375 0 -0.828125 0.109375q-0.34375 0.109375 -0.5625 0.328125q-0.203125 0.203125 -0.3125 0.484375q-0.09375 0.265625 -0.09375 0.609375q0 0.359375 0.125 0.625q0.125 0.265625 0.40625 0.484375q0.28125 0.21875 0.734375 0.4375q0.453125 0.203125 1.078125 0.453125q0.75 0.328125 1.28125 0.640625q0.546875 0.296875 0.890625 0.65625q0.359375 0.359375 0.515625 0.8125q0.171875 0.453125 0.171875 1.046875q0 0.75 -0.265625 1.3125q-0.265625 0.546875 -0.765625 0.921875q-0.484375 0.375 -1.1875 0.5625q-0.6875 0.1875 -1.53125 0.1875z" fill-rule="nonzero"/><path fill="#000000" d="m460.47324 274.3975q0.484375 0.75 0.9375 1.140625q0.453125 0.375 1.0625 0.375l0.046875 0l0 0.796875l-0.265625 0q-0.890625 0 -1.46875 -0.0625q-0.5625 -0.0625 -0.96875 -0.25q-0.390625 -0.1875 -0.671875 -0.515625q-0.28125 -0.34375 -0.609375 -0.875l-2.578125 -4.28125l-1.578125 0l0 3.921875q0 0.40625 0.125 0.671875q0.125 0.25 0.34375 0.390625q0.21875 0.125 0.5 0.171875q0.28125 0.03125 0.59375 0.03125l0.25 0l0 0.796875l-5.53125 0l0 -0.796875l0.25 0q0.3125 0 0.59375 -0.03125q0.28125 -0.046875 0.484375 -0.171875q0.21875 -0.140625 0.34375 -0.390625q0.140625 -0.265625 0.140625 -0.671875l0 -9.40625q0 -0.421875 -0.140625 -0.671875q-0.125 -0.265625 -0.34375 -0.40625q-0.203125 -0.140625 -0.484375 -0.171875q-0.28125 -0.046875 -0.59375 -0.046875l-0.25 0l0 -0.796875l5.109375 0q2.46875 0 3.671875 0.921875q1.21875 0.90625 1.21875 2.734375q0 0.765625 -0.25 1.34375q-0.25 0.5625 -0.65625 0.984375q-0.390625 0.421875 -0.890625 0.703125q-0.5 0.265625 -1.0 0.4375l2.609375 4.125zm-6.09375 -4.5625l1.34375 0q0.828125 0 1.390625 -0.1875q0.5625 -0.1875 0.890625 -0.546875q0.328125 -0.375 0.46875 -0.921875q0.15625 -0.5625 0.15625 -1.3125q0 -0.765625 -0.15625 -1.296875q-0.15625 -0.53125 -0.515625 -0.859375q-0.359375 -0.34375 -0.921875 -0.5q-0.546875 -0.15625 -1.359375 -0.15625l-1.296875 0l0 5.78125zm13.01532 -2.484375q-1.046875 0 -1.625 0.859375q-0.5625 0.859375 -0.671875 2.515625l4.375 0q0 -0.75 -0.125 -1.375q-0.109375 -0.625 -0.34375 -1.0625q-0.234375 -0.453125 -0.640625 -0.6875q-0.390625 -0.25 -0.96875 -0.25zm0.234375 9.546875q-1.03125 0 -1.859375 -0.34375q-0.8125 -0.359375 -1.375 -1.015625q-0.5625 -0.671875 -0.875 -1.640625q-0.296875 -0.96875 -0.296875 -2.203125q0 -2.671875 1.09375 -4.015625q1.09375 -1.34375 3.125 -1.34375q0.90625 0 1.640625 0.296875q0.734375 0.28125 1.25 0.859375q0.515625 0.5625 0.78125 1.421875q0.28125 0.84375 0.28125 1.96875l0 0.859375l-6.328125 0q0.015625 1.046875 0.203125 1.796875q0.1875 0.734375 0.546875 1.21875q0.359375 0.484375 0.875 0.71875q0.515625 0.21875 1.203125 0.21875q0.484375 0 0.90625 -0.109375q0.421875 -0.109375 0.765625 -0.296875q0.34375 -0.1875 0.609375 -0.421875q0.265625 -0.234375 0.4375 -0.5q0.125 0.0625 0.234375 0.234375q0.125 0.171875 0.125 0.421875q0 0.28125 -0.203125 0.609375q-0.203125 0.328125 -0.625 0.609375q-0.421875 0.28125 -1.046875 0.46875q-0.625 0.1875 -1.46875 0.1875zm9.905884 0q-0.9375 0 -1.734375 -0.296875q-0.796875 -0.296875 -1.375 -0.921875q-0.578125 -0.625 -0.90625 -1.609375q-0.3125 -1.0 -0.3125 -2.390625q0 -1.53125 0.3125 -2.546875q0.328125 -1.03125 0.890625 -1.65625q0.578125 -0.625 1.34375 -0.875q0.78125 -0.265625 1.6875 -0.265625q0.59375 0 1.171875 0.125q0.59375 0.109375 1.0625 0.359375q0.484375 0.234375 0.78125 0.609375q0.296875 0.359375 0.296875 0.84375q0 0.65625 -0.4375 0.9375q-0.421875 0.265625 -1.265625 0.265625q0 -0.453125 -0.078125 -0.84375q-0.0625 -0.40625 -0.25 -0.703125q-0.171875 -0.296875 -0.484375 -0.46875q-0.3125 -0.171875 -0.796875 -0.171875q-0.546875 0 -1.0 0.203125q-0.4375 0.203125 -0.75 0.703125q-0.3125 0.5 -0.484375 1.34375q-0.15625 0.84375 -0.15625 2.109375q0 2.03125 0.671875 3.03125q0.671875 0.984375 2.203125 0.984375q0.875 0 1.53125 -0.375q0.65625 -0.375 0.984375 -0.953125q0.140625 0.109375 0.234375 0.296875q0.09375 0.1875 0.09375 0.4375q0 0.328125 -0.203125 0.65625q-0.203125 0.328125 -0.609375 0.59375q-0.40625 0.25 -1.015625 0.40625q-0.59375 0.171875 -1.40625 0.171875zm9.026123 -9.546875q-1.046875 0 -1.625 0.859375q-0.5625 0.859375 -0.671875 2.515625l4.375 0q0 -0.75 -0.125 -1.375q-0.109375 -0.625 -0.34375 -1.0625q-0.234375 -0.453125 -0.640625 -0.6875q-0.390625 -0.25 -0.96875 -0.25zm0.234375 9.546875q-1.03125 0 -1.859375 -0.34375q-0.8125 -0.359375 -1.375 -1.015625q-0.5625 -0.671875 -0.875 -1.640625q-0.296875 -0.96875 -0.296875 -2.203125q0 -2.671875 1.09375 -4.015625q1.09375 -1.34375 3.125 -1.34375q0.90625 0 1.640625 0.296875q0.734375 0.28125 1.25 0.859375q0.515625 0.5625 0.78125 1.421875q0.28125 0.84375 0.28125 1.96875l0 0.859375l-6.328125 0q0.015625 1.046875 0.203125 1.796875q0.1875 0.734375 0.546875 1.21875q0.359375 0.484375 0.875 0.71875q0.515625 0.21875 1.203125 0.21875q0.484375 0 0.90625 -0.109375q0.421875 -0.109375 0.765625 -0.296875q0.34375 -0.1875 0.609375 -0.421875q0.265625 -0.234375 0.4375 -0.5q0.125 0.0625 0.234375 0.234375q0.125 0.171875 0.125 0.421875q0 0.28125 -0.203125 0.609375q-0.203125 0.328125 -0.625 0.609375q-0.421875 0.28125 -1.046875 0.46875q-0.625 0.1875 -1.46875 0.1875zm9.562134 -1.0q0.34375 0 0.625 -0.03125q0.296875 -0.046875 0.59375 -0.109375l0 0.84375q-0.125 0.046875 -0.3125 0.109375q-0.1875 0.0625 -0.421875 0.09375q-0.234375 0.046875 -0.484375 0.0625q-0.25 0.03125 -0.46875 0.03125q-0.71875 0 -1.25 -0.15625q-0.515625 -0.15625 -0.84375 -0.5q-0.328125 -0.34375 -0.5 -0.90625q-0.15625 -0.5625 -0.15625 -1.375l0 -6.34375l-1.453125 0l0 -0.765625q0.34375 0 0.75 -0.140625q0.421875 -0.140625 0.734375 -0.46875q0.328125 -0.34375 0.515625 -0.828125q0.203125 -0.5 0.359375 -1.234375l0.875 0l0 2.34375l2.484375 0l0 1.09375l-2.484375 0l0 6.390625q0 0.984375 0.390625 1.4375q0.390625 0.453125 1.046875 0.453125zm4.333557 -1.9375q0 0.890625 0.375 1.328125q0.375 0.4375 1.15625 0.4375q0.578125 0 1.046875 -0.1875q0.46875 -0.1875 0.796875 -0.53125q0.328125 -0.34375 0.5 -0.828125q0.1875 -0.5 0.1875 -1.09375l0 -1.546875l-1.21875 0.0625q-0.8125 0.03125 -1.359375 0.203125q-0.53125 0.15625 -0.875 0.453125q-0.328125 0.28125 -0.46875 0.71875q-0.140625 0.421875 -0.140625 0.984375zm2.296875 -6.671875q-0.546875 0 -0.890625 0.15625q-0.328125 0.140625 -0.53125 0.421875q-0.1875 0.28125 -0.25 0.671875q-0.0625 0.375 -0.0625 0.8125q-0.796875 0 -1.203125 -0.265625q-0.40625 -0.265625 -0.40625 -0.921875q0 -0.5 0.265625 -0.84375q0.265625 -0.34375 0.734375 -0.5625q0.46875 -0.21875 1.09375 -0.3125q0.625 -0.109375 1.328125 -0.109375q0.875 0 1.515625 0.171875q0.65625 0.171875 1.078125 0.5625q0.4375 0.390625 0.65625 1.015625q0.21875 0.625 0.21875 1.53125l0 4.9375q0 0.390625 0.0625 0.65625q0.078125 0.25 0.21875 0.421875q0.140625 0.15625 0.359375 0.21875q0.234375 0.0625 0.546875 0.0625l0.046875 0l0 0.796875l-2.5625 0l-0.296875 -1.640625l-0.15625 0q-0.296875 0.40625 -0.578125 0.75q-0.28125 0.328125 -0.625 0.578125q-0.328125 0.234375 -0.75 0.359375q-0.421875 0.140625 -1.015625 0.140625q-0.625 0 -1.171875 -0.1875q-0.53125 -0.171875 -0.9375 -0.546875q-0.390625 -0.375 -0.609375 -0.9375q-0.21875 -0.578125 -0.21875 -1.359375q0 -1.515625 1.0625 -2.25q1.078125 -0.734375 3.265625 -0.796875l1.578125 -0.0625l0 -1.140625q0 -0.5 -0.0625 -0.9375q-0.046875 -0.4375 -0.234375 -0.734375q-0.1875 -0.3125 -0.546875 -0.484375q-0.34375 -0.171875 -0.921875 -0.171875zm9.39389 9.609375q-0.703125 0 -1.296875 -0.125q-0.578125 -0.125 -0.984375 -0.375q-0.40625 -0.265625 -0.625 -0.640625q-0.21875 -0.375 -0.21875 -0.875q0 -0.375 0.125 -0.625q0.125 -0.265625 0.296875 -0.40625q0.1875 -0.15625 0.390625 -0.21875q0.21875 -0.0625 0.375 -0.0625q0 0.5 0.09375 0.9375q0.109375 0.4375 0.34375 0.765625q0.25 0.328125 0.640625 0.53125q0.40625 0.1875 0.96875 0.1875q0.515625 0 0.90625 -0.125q0.390625 -0.125 0.65625 -0.34375q0.265625 -0.234375 0.40625 -0.546875q0.140625 -0.328125 0.140625 -0.71875q0 -0.34375 -0.109375 -0.59375q-0.109375 -0.265625 -0.375 -0.484375q-0.265625 -0.21875 -0.71875 -0.453125q-0.453125 -0.234375 -1.140625 -0.53125q-0.734375 -0.328125 -1.28125 -0.625q-0.53125 -0.3125 -0.890625 -0.65625q-0.34375 -0.359375 -0.53125 -0.796875q-0.171875 -0.453125 -0.171875 -1.078125q0 -0.65625 0.25 -1.15625q0.265625 -0.5 0.734375 -0.828125q0.46875 -0.34375 1.125 -0.515625q0.65625 -0.1875 1.46875 -0.1875q0.671875 0 1.1875 0.140625q0.53125 0.140625 0.875 0.375q0.359375 0.234375 0.53125 0.5625q0.1875 0.3125 0.1875 0.671875q0 0.515625 -0.359375 0.828125q-0.359375 0.3125 -1.015625 0.3125q0 -0.953125 -0.40625 -1.484375q-0.390625 -0.53125 -1.234375 -0.53125q-0.484375 0 -0.828125 0.109375q-0.34375 0.109375 -0.5625 0.328125q-0.203125 0.203125 -0.3125 0.484375q-0.09375 0.265625 -0.09375 0.609375q0 0.359375 0.125 0.625q0.125 0.265625 0.40625 0.484375q0.28125 0.21875 0.734375 0.4375q0.453125 0.203125 1.078125 0.453125q0.75 0.328125 1.28125 0.640625q0.546875 0.296875 0.890625 0.65625q0.359375 0.359375 0.515625 0.8125q0.171875 0.453125 0.171875 1.046875q0 0.75 -0.265625 1.3125q-0.265625 0.546875 -0.765625 0.921875q-0.484375 0.375 -1.1875 0.5625q-0.6875 0.1875 -1.53125 0.1875z" fill-rule="nonzero"/><path fill="#d9d9d9" d="m760.1262 180.24763l184.50397 0l0 91.086624l-184.50397 0z" fill-rule="nonzero"/><path fill="#000000" d="m798.5508 210.71095l-4.109375 -11.765625q-0.09375 -0.296875 -0.21875 -0.484375q-0.125 -0.203125 -0.28125 -0.3125q-0.15625 -0.109375 -0.359375 -0.15625q-0.203125 -0.046875 -0.484375 -0.046875l-0.25 0l0 -0.796875l5.21875 0l0 0.796875l-0.4375 0q-0.5625 0 -0.859375 0.21875q-0.28125 0.21875 -0.28125 0.6875q0 0.15625 0.046875 0.328125q0.046875 0.171875 0.109375 0.375l2.09375 6.171875q0.28125 0.84375 0.484375 1.640625q0.21875 0.796875 0.375 1.484375q0.140625 -0.6875 0.34375 -1.453125q0.203125 -0.78125 0.515625 -1.671875l2.109375 -6.03125q0.0625 -0.234375 0.109375 -0.453125q0.046875 -0.21875 0.046875 -0.375q0 -0.484375 -0.3125 -0.703125q-0.296875 -0.21875 -0.9375 -0.21875l-0.4375 0l0 -0.796875l4.640625 0l0 0.796875l-0.375 0q-0.265625 0 -0.46875 0.0625q-0.203125 0.046875 -0.375 0.21875q-0.15625 0.15625 -0.296875 0.453125q-0.140625 0.28125 -0.296875 0.734375l-3.921875 11.296875l-1.390625 0zm7.5736694 -0.796875q0.3125 0 0.59375 -0.03125q0.28125 -0.046875 0.5 -0.171875q0.21875 -0.140625 0.34375 -0.390625q0.125 -0.265625 0.125 -0.671875l0 -6.03125q0 -0.40625 -0.125 -0.65625q-0.125 -0.265625 -0.34375 -0.40625q-0.21875 -0.140625 -0.5 -0.1875q-0.28125 -0.046875 -0.59375 -0.046875l-0.0625 0l0 -0.796875l3.40625 0l0 8.03125q0 0.4375 0.125 0.71875q0.125 0.265625 0.328125 0.40625q0.203125 0.140625 0.484375 0.1875q0.296875 0.046875 0.609375 0.046875l0.25 0l0 0.796875l-5.390625 0l0 -0.796875l0.25 0zm1.28125 -12.46875q0 -0.328125 0.078125 -0.546875q0.09375 -0.234375 0.234375 -0.375q0.15625 -0.140625 0.34375 -0.1875q0.203125 -0.0625 0.4375 -0.0625q0.21875 0 0.40625 0.0625q0.203125 0.046875 0.34375 0.1875q0.15625 0.140625 0.234375 0.375q0.09375 0.21875 0.09375 0.546875q0 0.328125 -0.09375 0.5625q-0.078125 0.21875 -0.234375 0.359375q-0.140625 0.140625 -0.34375 0.203125q-0.1875 0.046875 -0.40625 0.046875q-0.234375 0 -0.4375 -0.046875q-0.1875 -0.0625 -0.34375 -0.203125q-0.140625 -0.140625 -0.234375 -0.359375q-0.078125 -0.234375 -0.078125 -0.5625zm7.982361 13.453125q-0.703125 0 -1.296875 -0.125q-0.578125 -0.125 -0.984375 -0.375q-0.40625 -0.265625 -0.625 -0.640625q-0.21875 -0.375 -0.21875 -0.875q0 -0.375 0.125 -0.625q0.125 -0.265625 0.296875 -0.40625q0.1875 -0.15625 0.390625 -0.21875q0.21875 -0.0625 0.375 -0.0625q0 0.5 0.09375 0.9375q0.109375 0.4375 0.34375 0.765625q0.25 0.328125 0.640625 0.53125q0.40625 0.1875 0.96875 0.1875q0.515625 0 0.90625 -0.125q0.390625 -0.125 0.65625 -0.34375q0.265625 -0.234375 0.40625 -0.546875q0.140625 -0.328125 0.140625 -0.71875q0 -0.34375 -0.109375 -0.59375q-0.109375 -0.265625 -0.375 -0.484375q-0.265625 -0.21875 -0.71875 -0.453125q-0.453125 -0.234375 -1.140625 -0.53125q-0.734375 -0.328125 -1.28125 -0.625q-0.53125 -0.3125 -0.890625 -0.65625q-0.34375 -0.359375 -0.53125 -0.796875q-0.171875 -0.453125 -0.171875 -1.078125q0 -0.65625 0.25 -1.15625q0.265625 -0.5 0.734375 -0.828125q0.46875 -0.34375 1.125 -0.515625q0.65625 -0.1875 1.46875 -0.1875q0.671875 0 1.1875 0.140625q0.53125 0.140625 0.875 0.375q0.359375 0.234375 0.53125 0.5625q0.1875 0.3125 0.1875 0.671875q0 0.515625 -0.359375 0.828125q-0.359375 0.3125 -1.015625 0.3125q0 -0.953125 -0.40625 -1.484375q-0.390625 -0.53125 -1.234375 -0.53125q-0.484375 0 -0.828125 0.109375q-0.34375 0.109375 -0.5625 0.328125q-0.203125 0.203125 -0.3125 0.484375q-0.09375 0.265625 -0.09375 0.609375q0 0.359375 0.125 0.625q0.125 0.265625 0.40625 0.484375q0.28125 0.21875 0.734375 0.4375q0.453125 0.203125 1.078125 0.453125q0.75 0.328125 1.28125 0.640625q0.546875 0.296875 0.890625 0.65625q0.359375 0.359375 0.515625 0.8125q0.171875 0.453125 0.171875 1.046875q0 0.75 -0.265625 1.3125q-0.265625 0.546875 -0.765625 0.921875q-0.484375 0.375 -1.1875 0.5625q-0.6875 0.1875 -1.53125 0.1875zm14.448425 -2.25q0 0.40625 0.125 0.671875q0.125 0.25 0.328125 0.390625q0.21875 0.125 0.5 0.171875q0.28125 0.03125 0.59375 0.03125l0.0625 0l0 0.796875l-3.015625 0l-0.25 -1.546875l-0.09375 0q-0.28125 0.546875 -0.640625 0.890625q-0.34375 0.328125 -0.734375 0.515625q-0.390625 0.1875 -0.8125 0.25q-0.421875 0.078125 -0.890625 0.078125q-0.75 0 -1.34375 -0.203125q-0.578125 -0.21875 -0.984375 -0.671875q-0.390625 -0.46875 -0.609375 -1.171875q-0.203125 -0.703125 -0.203125 -1.671875l0 -4.5625q0 -0.40625 -0.125 -0.65625q-0.125 -0.265625 -0.34375 -0.40625q-0.203125 -0.140625 -0.484375 -0.1875q-0.28125 -0.046875 -0.609375 -0.046875l-0.046875 0l0 -0.796875l3.40625 0l0 6.5625q0 0.625 0.09375 1.109375q0.09375 0.46875 0.3125 0.8125q0.234375 0.328125 0.625 0.5q0.390625 0.171875 0.953125 0.171875q0.640625 0 1.078125 -0.21875q0.453125 -0.21875 0.75 -0.625q0.296875 -0.40625 0.4375 -0.96875q0.140625 -0.578125 0.140625 -1.25l0 -3.921875q0 -0.453125 -0.125 -0.71875q-0.125 -0.28125 -0.34375 -0.421875q-0.203125 -0.140625 -0.484375 -0.1875q-0.28125 -0.046875 -0.609375 -0.046875l-0.0625 0l0 -0.796875l3.40625 0l0 8.125zm4.623596 -0.6875q0 0.890625 0.375 1.328125q0.375 0.4375 1.15625 0.4375q0.578125 0 1.046875 -0.1875q0.46875 -0.1875 0.796875 -0.53125q0.328125 -0.34375 0.5 -0.828125q0.1875 -0.5 0.1875 -1.09375l0 -1.546875l-1.21875 0.0625q-0.8125 0.03125 -1.359375 0.203125q-0.53125 0.15625 -0.875 0.453125q-0.328125 0.28125 -0.46875 0.71875q-0.140625 0.421875 -0.140625 0.984375zm2.296875 -6.671875q-0.546875 0 -0.890625 0.15625q-0.328125 0.140625 -0.53125 0.421875q-0.1875 0.28125 -0.25 0.671875q-0.0625 0.375 -0.0625 0.8125q-0.796875 0 -1.203125 -0.265625q-0.40625 -0.265625 -0.40625 -0.921875q0 -0.5 0.265625 -0.84375q0.265625 -0.34375 0.734375 -0.5625q0.46875 -0.21875 1.09375 -0.3125q0.625 -0.109375 1.328125 -0.109375q0.875 0 1.515625 0.171875q0.65625 0.171875 1.078125 0.5625q0.4375 0.390625 0.65625 1.015625q0.21875 0.625 0.21875 1.53125l0 4.9375q0 0.390625 0.0625 0.65625q0.078125 0.25 0.21875 0.421875q0.140625 0.15625 0.359375 0.21875q0.234375 0.0625 0.546875 0.0625l0.046875 0l0 0.796875l-2.5625 0l-0.296875 -1.640625l-0.15625 0q-0.296875 0.40625 -0.578125 0.75q-0.28125 0.328125 -0.625 0.578125q-0.328125 0.234375 -0.75 0.359375q-0.421875 0.140625 -1.015625 0.140625q-0.625 0 -1.171875 -0.1875q-0.53125 -0.171875 -0.9375 -0.546875q-0.390625 -0.375 -0.609375 -0.9375q-0.21875 -0.578125 -0.21875 -1.359375q0 -1.515625 1.0625 -2.25q1.078125 -0.734375 3.265625 -0.796875l1.578125 -0.0625l0 -1.140625q0 -0.5 -0.0625 -0.9375q-0.046875 -0.4375 -0.234375 -0.734375q-0.1875 -0.3125 -0.546875 -0.484375q-0.34375 -0.171875 -0.921875 -0.171875zm5.89386 8.625q0.328125 0 0.609375 -0.046875q0.28125 -0.046875 0.484375 -0.1875q0.21875 -0.140625 0.34375 -0.40625q0.125 -0.28125 0.125 -0.71875l0 -10.1875q0 -0.421875 -0.125 -0.671875q-0.125 -0.265625 -0.34375 -0.390625q-0.203125 -0.140625 -0.484375 -0.1875q-0.28125 -0.046875 -0.609375 -0.046875l-0.234375 0l0 -0.796875l3.59375 0l0 12.28125q0 0.4375 0.109375 0.71875q0.125 0.265625 0.34375 0.40625q0.21875 0.140625 0.5 0.1875q0.28125 0.046875 0.609375 0.046875l0.234375 0l0 0.796875l-5.390625 0l0 -0.796875l0.234375 0zm5.987671 0q0.3125 0 0.59375 -0.03125q0.28125 -0.046875 0.5 -0.171875q0.21875 -0.140625 0.34375 -0.390625q0.125 -0.265625 0.125 -0.671875l0 -6.03125q0 -0.40625 -0.125 -0.65625q-0.125 -0.265625 -0.34375 -0.40625q-0.21875 -0.140625 -0.5 -0.1875q-0.28125 -0.046875 -0.59375 -0.046875l-0.0625 0l0 -0.796875l3.40625 0l0 8.03125q0 0.4375 0.125 0.71875q0.125 0.265625 0.328125 0.40625q0.203125 0.140625 0.484375 0.1875q0.296875 0.046875 0.609375 0.046875l0.25 0l0 0.796875l-5.390625 0l0 -0.796875l0.25 0zm1.28125 -12.46875q0 -0.328125 0.078125 -0.546875q0.09375 -0.234375 0.234375 -0.375q0.15625 -0.140625 0.34375 -0.1875q0.203125 -0.0625 0.4375 -0.0625q0.21875 0 0.40625 0.0625q0.203125 0.046875 0.34375 0.1875q0.15625 0.140625 0.234375 0.375q0.09375 0.21875 0.09375 0.546875q0 0.328125 -0.09375 0.5625q-0.078125 0.21875 -0.234375 0.359375q-0.140625 0.140625 -0.34375 0.203125q-0.1875 0.046875 -0.40625 0.046875q-0.234375 0 -0.4375 -0.046875q-0.1875 -0.0625 -0.34375 -0.203125q-0.140625 -0.140625 -0.234375 -0.359375q-0.078125 -0.234375 -0.078125 -0.5625zm10.451111 12.1875q0.34375 0 0.5625 -0.125q0.21875 -0.140625 0.359375 -0.34375q0.140625 -0.21875 0.21875 -0.5q0.09375 -0.296875 0.15625 -0.59375l0.09375 -0.4375l0.796875 0l-0.09375 3.078125l-7.75 0l0 -0.765625l5.515625 -8.328125l-2.96875 0q-0.375 0 -0.625 0.09375q-0.234375 0.09375 -0.390625 0.296875q-0.140625 0.1875 -0.25 0.484375q-0.09375 0.28125 -0.1875 0.65625l-0.03125 0.078125l-0.796875 0l0.1875 -2.703125l7.28125 0l0 0.78125l-5.53125 8.328125l3.453125 0zm5.8813477 -1.671875q0 0.890625 0.375 1.328125q0.375 0.4375 1.15625 0.4375q0.578125 0 1.046875 -0.1875q0.46875 -0.1875 0.796875 -0.53125q0.328125 -0.34375 0.5 -0.828125q0.1875 -0.5 0.1875 -1.09375l0 -1.546875l-1.21875 0.0625q-0.8125 0.03125 -1.359375 0.203125q-0.53125 0.15625 -0.875 0.453125q-0.328125 0.28125 -0.46875 0.71875q-0.140625 0.421875 -0.140625 0.984375zm2.296875 -6.671875q-0.546875 0 -0.890625 0.15625q-0.328125 0.140625 -0.53125 0.421875q-0.1875 0.28125 -0.25 0.671875q-0.0625 0.375 -0.0625 0.8125q-0.796875 0 -1.203125 -0.265625q-0.40625 -0.265625 -0.40625 -0.921875q0 -0.5 0.265625 -0.84375q0.265625 -0.34375 0.734375 -0.5625q0.46875 -0.21875 1.09375 -0.3125q0.625 -0.109375 1.328125 -0.109375q0.875 0 1.515625 0.171875q0.65625 0.171875 1.078125 0.5625q0.4375 0.390625 0.65625 1.015625q0.21875 0.625 0.21875 1.53125l0 4.9375q0 0.390625 0.0625 0.65625q0.078125 0.25 0.21875 0.421875q0.140625 0.15625 0.359375 0.21875q0.234375 0.0625 0.546875 0.0625l0.046875 0l0 0.796875l-2.5625 0l-0.296875 -1.640625l-0.15625 0q-0.296875 0.40625 -0.578125 0.75q-0.28125 0.328125 -0.625 0.578125q-0.328125 0.234375 -0.75 0.359375q-0.421875 0.140625 -1.015625 0.140625q-0.625 0 -1.171875 -0.1875q-0.53125 -0.171875 -0.9375 -0.546875q-0.390625 -0.375 -0.609375 -0.9375q-0.21875 -0.578125 -0.21875 -1.359375q0 -1.515625 1.0625 -2.25q1.078125 -0.734375 3.265625 -0.796875l1.578125 -0.0625l0 -1.140625q0 -0.5 -0.0625 -0.9375q-0.046875 -0.4375 -0.234375 -0.734375q-0.1875 -0.3125 -0.546875 -0.484375q-0.34375 -0.171875 -0.921875 -0.171875zm10.784546 9.609375q-0.9375 0 -1.734375 -0.296875q-0.796875 -0.296875 -1.375 -0.921875q-0.578125 -0.625 -0.90625 -1.609375q-0.3125 -1.0 -0.3125 -2.390625q0 -1.53125 0.3125 -2.546875q0.328125 -1.03125 0.890625 -1.65625q0.578125 -0.625 1.34375 -0.875q0.78125 -0.265625 1.6875 -0.265625q0.59375 0 1.171875 0.125q0.59375 0.109375 1.0625 0.359375q0.484375 0.234375 0.78125 0.609375q0.296875 0.359375 0.296875 0.84375q0 0.65625 -0.4375 0.9375q-0.421875 0.265625 -1.265625 0.265625q0 -0.453125 -0.078125 -0.84375q-0.0625 -0.40625 -0.25 -0.703125q-0.171875 -0.296875 -0.484375 -0.46875q-0.3125 -0.171875 -0.796875 -0.171875q-0.546875 0 -1.0 0.203125q-0.4375 0.203125 -0.75 0.703125q-0.3125 0.5 -0.484375 1.34375q-0.15625 0.84375 -0.15625 2.109375q0 2.03125 0.671875 3.03125q0.671875 0.984375 2.203125 0.984375q0.875 0 1.53125 -0.375q0.65625 -0.375 0.984375 -0.953125q0.140625 0.109375 0.234375 0.296875q0.09375 0.1875 0.09375 0.4375q0 0.328125 -0.203125 0.65625q-0.203125 0.328125 -0.609375 0.59375q-0.40625 0.25 -1.015625 0.40625q-0.59375 0.171875 -1.40625 0.171875zm4.494873 -0.984375q0.3125 0 0.59375 -0.03125q0.28125 -0.046875 0.5 -0.171875q0.21875 -0.140625 0.34375 -0.390625q0.125 -0.265625 0.125 -0.671875l0 -6.03125q0 -0.40625 -0.125 -0.65625q-0.125 -0.265625 -0.34375 -0.40625q-0.21875 -0.140625 -0.5 -0.1875q-0.28125 -0.046875 -0.59375 -0.046875l-0.0625 0l0 -0.796875l3.40625 0l0 8.03125q0 0.4375 0.125 0.71875q0.125 0.265625 0.328125 0.40625q0.203125 0.140625 0.484375 0.1875q0.296875 0.046875 0.609375 0.046875l0.25 0l0 0.796875l-5.390625 0l0 -0.796875l0.25 0zm1.28125 -12.46875q0 -0.328125 0.078125 -0.546875q0.09375 -0.234375 0.234375 -0.375q0.15625 -0.140625 0.34375 -0.1875q0.203125 -0.0625 0.4375 -0.0625q0.21875 0 0.40625 0.0625q0.203125 0.046875 0.34375 0.1875q0.15625 0.140625 0.234375 0.375q0.09375 0.21875 0.09375 0.546875q0 0.328125 -0.09375 0.5625q-0.078125 0.21875 -0.234375 0.359375q-0.140625 0.140625 -0.34375 0.203125q-0.1875 0.046875 -0.40625 0.046875q-0.234375 0 -0.4375 -0.046875q-0.1875 -0.0625 -0.34375 -0.203125q-0.140625 -0.140625 -0.234375 -0.359375q-0.078125 -0.234375 -0.078125 -0.5625zm13.9198 8.15625q0 2.671875 -1.140625 3.984375q-1.140625 1.3125 -3.328125 1.3125q-1.03125 0 -1.84375 -0.328125q-0.8125 -0.328125 -1.390625 -0.984375q-0.5625 -0.65625 -0.875 -1.65625q-0.296875 -1.0 -0.296875 -2.328125q0 -2.671875 1.125 -3.96875q1.125 -1.296875 3.34375 -1.296875q1.03125 0 1.84375 0.328125q0.8125 0.3125 1.375 0.96875q0.578125 0.65625 0.875 1.640625q0.3125 0.984375 0.3125 2.328125zm-7.03125 0q0 1.0625 0.125 1.875q0.140625 0.796875 0.453125 1.34375q0.3125 0.53125 0.8125 0.8125q0.5 0.28125 1.21875 0.28125q0.703125 0 1.1875 -0.28125q0.5 -0.28125 0.796875 -0.8125q0.3125 -0.546875 0.453125 -1.34375q0.140625 -0.8125 0.140625 -1.875q0 -1.0625 -0.140625 -1.859375q-0.140625 -0.796875 -0.453125 -1.328125q-0.296875 -0.53125 -0.796875 -0.796875q-0.5 -0.28125 -1.21875 -0.28125q-0.703125 0 -1.203125 0.28125q-0.484375 0.265625 -0.796875 0.796875q-0.3125 0.53125 -0.453125 1.328125q-0.125 0.796875 -0.125 1.859375zm1.734375 -6.65625q0.21875 -0.265625 0.4375 -0.609375q0.234375 -0.359375 0.453125 -0.734375q0.21875 -0.375 0.40625 -0.75q0.203125 -0.375 0.359375 -0.703125l2.03125 0l0 0.203125q-0.171875 0.25 -0.515625 0.625q-0.34375 0.375 -0.765625 0.78125q-0.421875 0.40625 -0.859375 0.796875q-0.4375 0.390625 -0.828125 0.640625l-0.71875 0l0 -0.25zm11.783081 10.96875l0 0.796875l-5.109375 0l0 -0.796875l0.15625 0q0.328125 0 0.609375 -0.046875q0.28125 -0.046875 0.484375 -0.1875q0.21875 -0.140625 0.34375 -0.40625q0.125 -0.28125 0.125 -0.71875l0 -5.9375q0 -0.40625 -0.125 -0.65625q-0.125 -0.265625 -0.34375 -0.40625q-0.21875 -0.140625 -0.5 -0.1875q-0.28125 -0.046875 -0.59375 -0.046875l-0.0625 0l0 -0.796875l3.078125 0l0.25 1.546875l0.09375 0q0.296875 -0.53125 0.625 -0.875q0.328125 -0.34375 0.6875 -0.53125q0.375 -0.1875 0.78125 -0.25q0.421875 -0.078125 0.875 -0.078125q0.75 0 1.328125 0.21875q0.59375 0.21875 1.0 0.671875q0.421875 0.453125 0.640625 1.15625q0.21875 0.703125 0.21875 1.671875l0 4.5q0 0.4375 0.109375 0.71875q0.109375 0.265625 0.296875 0.40625q0.203125 0.140625 0.46875 0.1875q0.265625 0.046875 0.578125 0.046875l0.078125 0l0 0.796875l-3.3125 0l0 -6.5625q0 -0.625 -0.125 -1.09375q-0.109375 -0.484375 -0.359375 -0.8125q-0.234375 -0.34375 -0.640625 -0.515625q-0.390625 -0.171875 -0.96875 -0.171875q-0.65625 0 -1.09375 0.25q-0.4375 0.25 -0.703125 0.6875q-0.265625 0.421875 -0.390625 0.984375q-0.109375 0.546875 -0.109375 1.15625l0 4.015625q0 0.40625 0.125 0.671875q0.125 0.25 0.328125 0.390625q0.21875 0.125 0.5 0.171875q0.28125 0.03125 0.59375 0.03125l0.0625 0z" fill-rule="nonzero"/><path fill="#000000" d="m796.45056 240.94531q0.96875 0 1.6875 0.171875q0.71875 0.15625 1.1875 0.453125q0.484375 0.28125 0.71875 0.671875q0.234375 0.390625 0.234375 0.84375q0 0.3125 -0.125 0.5625q-0.125 0.234375 -0.34375 0.40625q-0.21875 0.171875 -0.53125 0.265625q-0.296875 0.09375 -0.640625 0.09375q0 -0.453125 -0.125 -0.875q-0.109375 -0.4375 -0.375 -0.78125q-0.265625 -0.359375 -0.6875 -0.578125q-0.421875 -0.21875 -1.046875 -0.21875q-1.078125 0 -1.828125 0.40625q-0.75 0.390625 -1.21875 1.140625q-0.46875 0.75 -0.6875 1.859375q-0.21875 1.109375 -0.21875 2.546875q0 1.265625 0.21875 2.328125q0.234375 1.046875 0.71875 1.8125q0.484375 0.75 1.21875 1.171875q0.75 0.421875 1.796875 0.421875q0.703125 0 1.234375 -0.140625q0.53125 -0.140625 0.9375 -0.359375q0.40625 -0.21875 0.71875 -0.5q0.3125 -0.296875 0.546875 -0.625q0.171875 0.109375 0.265625 0.28125q0.109375 0.171875 0.109375 0.46875q0 0.359375 -0.25 0.734375q-0.25 0.375 -0.75 0.6875q-0.5 0.296875 -1.28125 0.5q-0.765625 0.203125 -1.8125 0.203125q-1.421875 0 -2.5 -0.5q-1.078125 -0.5 -1.8125 -1.421875q-0.71875 -0.921875 -1.09375 -2.203125q-0.375 -1.296875 -0.375 -2.859375q0 -1.546875 0.390625 -2.828125q0.390625 -1.28125 1.15625 -2.1875q0.765625 -0.921875 1.90625 -1.4375q1.140625 -0.515625 2.65625 -0.515625zm14.184998 8.65625q0 2.671875 -1.140625 3.984375q-1.140625 1.3125 -3.328125 1.3125q-1.03125 0 -1.84375 -0.328125q-0.8125 -0.328125 -1.390625 -0.984375q-0.5625 -0.65625 -0.875 -1.65625q-0.296875 -1.0 -0.296875 -2.328125q0 -2.671875 1.125 -3.96875q1.125 -1.296875 3.34375 -1.296875q1.03125 0 1.84375 0.328125q0.8125 0.3125 1.375 0.96875q0.578125 0.65625 0.875 1.640625q0.3125 0.984375 0.3125 2.328125zm-7.03125 0q0 1.0625 0.125 1.875q0.140625 0.796875 0.453125 1.34375q0.3125 0.53125 0.8125 0.8125q0.5 0.28125 1.21875 0.28125q0.703125 0 1.1875 -0.28125q0.5 -0.28125 0.796875 -0.8125q0.3125 -0.546875 0.453125 -1.34375q0.140625 -0.8125 0.140625 -1.875q0 -1.0625 -0.140625 -1.859375q-0.140625 -0.796875 -0.453125 -1.328125q-0.296875 -0.53125 -0.796875 -0.796875q-0.5 -0.28125 -1.21875 -0.28125q-0.703125 0 -1.203125 0.28125q-0.484375 0.265625 -0.796875 0.796875q-0.3125 0.53125 -0.453125 1.328125q-0.125 0.796875 -0.125 1.859375zm13.517456 4.3125l0 0.796875l-5.109375 0l0 -0.796875l0.15625 0q0.328125 0 0.609375 -0.046875q0.28125 -0.046875 0.484375 -0.1875q0.21875 -0.140625 0.34375 -0.40625q0.125 -0.28125 0.125 -0.71875l0 -5.9375q0 -0.40625 -0.125 -0.65625q-0.125 -0.265625 -0.34375 -0.40625q-0.21875 -0.140625 -0.5 -0.1875q-0.28125 -0.046875 -0.59375 -0.046875l-0.0625 0l0 -0.796875l3.078125 0l0.25 1.546875l0.09375 0q0.296875 -0.53125 0.625 -0.875q0.328125 -0.34375 0.6875 -0.53125q0.375 -0.1875 0.78125 -0.25q0.421875 -0.078125 0.875 -0.078125q0.75 0 1.328125 0.21875q0.59375 0.21875 1.0 0.671875q0.421875 0.453125 0.640625 1.15625q0.21875 0.703125 0.21875 1.671875l0 4.5q0 0.4375 0.109375 0.71875q0.109375 0.265625 0.296875 0.40625q0.203125 0.140625 0.46875 0.1875q0.265625 0.046875 0.578125 0.046875l0.078125 0l0 0.796875l-3.3125 0l0 -6.5625q0 -0.625 -0.125 -1.09375q-0.109375 -0.484375 -0.359375 -0.8125q-0.234375 -0.34375 -0.640625 -0.515625q-0.390625 -0.171875 -0.96875 -0.171875q-0.65625 0 -1.09375 0.25q-0.4375 0.25 -0.703125 0.6875q-0.265625 0.421875 -0.390625 0.984375q-0.109375 0.546875 -0.109375 1.15625l0 4.015625q0 0.40625 0.125 0.671875q0.125 0.25 0.328125 0.390625q0.21875 0.125 0.5 0.171875q0.28125 0.03125 0.59375 0.03125l0.0625 0zm12.78363 0l0 0.796875l-5.875 0l0 -0.796875l0.25 0q0.3125 0 0.59375 -0.046875q0.296875 -0.046875 0.5 -0.1875q0.203125 -0.140625 0.328125 -0.40625q0.125 -0.28125 0.125 -0.71875l0 -7.125l-1.734375 0l0 -0.90625l1.734375 0l0 -0.953125q0 -0.84375 0.234375 -1.484375q0.234375 -0.65625 0.671875 -1.09375q0.4375 -0.453125 1.0625 -0.671875q0.625 -0.234375 1.390625 -0.234375q0.75 0 1.25 0.09375q0.515625 0.09375 0.828125 0.28125q0.3125 0.171875 0.453125 0.421875q0.140625 0.234375 0.140625 0.53125q0 0.25 -0.125 0.453125q-0.109375 0.203125 -0.328125 0.34375q-0.203125 0.125 -0.484375 0.203125q-0.28125 0.0625 -0.625 0.0625q0 -0.296875 -0.0625 -0.5625q-0.0625 -0.28125 -0.203125 -0.484375q-0.140625 -0.21875 -0.390625 -0.34375q-0.234375 -0.140625 -0.59375 -0.140625q-0.40625 0 -0.6875 0.171875q-0.265625 0.15625 -0.4375 0.46875q-0.171875 0.296875 -0.25 0.765625q-0.0625 0.453125 -0.0625 1.046875l0 1.125l2.6875 0l0 0.90625l-2.6875 0l0 7.125q0 0.4375 0.125 0.71875q0.125 0.265625 0.328125 0.40625q0.21875 0.140625 0.5 0.1875q0.296875 0.046875 0.609375 0.046875l0.734375 0zm1.1836548 0q0.3125 0 0.59375 -0.03125q0.28125 -0.046875 0.5 -0.171875q0.21875 -0.140625 0.34375 -0.390625q0.125 -0.265625 0.125 -0.671875l0 -6.03125q0 -0.40625 -0.125 -0.65625q-0.125 -0.265625 -0.34375 -0.40625q-0.21875 -0.140625 -0.5 -0.1875q-0.28125 -0.046875 -0.59375 -0.046875l-0.0625 0l0 -0.796875l3.40625 0l0 8.03125q0 0.4375 0.125 0.71875q0.125 0.265625 0.328125 0.40625q0.203125 0.140625 0.484375 0.1875q0.296875 0.046875 0.609375 0.046875l0.25 0l0 0.796875l-5.390625 0l0 -0.796875l0.25 0zm1.28125 -12.46875q0 -0.328125 0.078125 -0.546875q0.09375 -0.234375 0.234375 -0.375q0.15625 -0.140625 0.34375 -0.1875q0.203125 -0.0625 0.4375 -0.0625q0.21875 0 0.40625 0.0625q0.203125 0.046875 0.34375 0.1875q0.15625 0.140625 0.234375 0.375q0.09375 0.21875 0.09375 0.546875q0 0.328125 -0.09375 0.5625q-0.078125 0.21875 -0.234375 0.359375q-0.140625 0.140625 -0.34375 0.203125q-0.1875 0.046875 -0.40625 0.046875q-0.234375 0 -0.4375 -0.046875q-0.1875 -0.0625 -0.34375 -0.203125q-0.140625 -0.140625 -0.234375 -0.359375q-0.078125 -0.234375 -0.078125 -0.5625zm13.982361 3.484375q0 0.203125 -0.0625 0.390625q-0.046875 0.171875 -0.171875 0.3125q-0.125 0.125 -0.3125 0.203125q-0.1875 0.078125 -0.453125 0.078125q0 -0.109375 -0.03125 -0.21875q-0.015625 -0.109375 -0.09375 -0.203125q-0.0625 -0.109375 -0.1875 -0.15625q-0.125 -0.0625 -0.3125 -0.0625q-0.234375 0 -0.4375 0.0625q-0.1875 0.046875 -0.375 0.15625q0.328125 0.40625 0.53125 0.953125q0.203125 0.53125 0.203125 1.359375q0 0.703125 -0.21875 1.296875q-0.203125 0.59375 -0.625 1.03125q-0.421875 0.4375 -1.078125 0.6875q-0.640625 0.25 -1.5 0.25q-0.109375 0 -0.25 0q-0.140625 -0.015625 -0.28125 -0.015625q-0.140625 -0.015625 -0.265625 -0.015625q-0.109375 -0.015625 -0.1875 -0.03125q-0.1875 0.09375 -0.359375 0.203125q-0.15625 0.109375 -0.28125 0.25q-0.125 0.140625 -0.203125 0.328125q-0.078125 0.171875 -0.078125 0.375q0 0.234375 0.09375 0.375q0.09375 0.140625 0.25 0.21875q0.15625 0.078125 0.375 0.109375q0.21875 0.015625 0.46875 0.015625l2.15625 0q0.84375 0 1.4375 0.21875q0.59375 0.203125 0.96875 0.578125q0.375 0.375 0.546875 0.90625q0.171875 0.53125 0.171875 1.140625q0 0.8125 -0.296875 1.46875q-0.296875 0.65625 -0.921875 1.109375q-0.625 0.46875 -1.578125 0.71875q-0.953125 0.25 -2.234375 0.25q-1.984375 0 -2.96875 -0.734375q-0.984375 -0.734375 -0.984375 -2.03125q0 -0.5625 0.1875 -0.984375q0.203125 -0.40625 0.53125 -0.703125q0.328125 -0.296875 0.75 -0.484375q0.4375 -0.1875 0.90625 -0.28125q-0.203125 -0.078125 -0.390625 -0.21875q-0.171875 -0.140625 -0.328125 -0.328125q-0.140625 -0.203125 -0.234375 -0.453125q-0.09375 -0.25 -0.09375 -0.546875q0 -0.578125 0.296875 -0.984375q0.296875 -0.40625 0.9375 -0.796875q-0.40625 -0.171875 -0.734375 -0.453125q-0.3125 -0.296875 -0.53125 -0.671875q-0.21875 -0.390625 -0.328125 -0.828125q-0.109375 -0.453125 -0.109375 -0.921875q0 -0.828125 0.21875 -1.46875q0.21875 -0.65625 0.65625 -1.109375q0.453125 -0.453125 1.125 -0.6875q0.671875 -0.25 1.5625 -0.25q0.34375 0 0.671875 0.0625q0.34375 0.046875 0.625 0.140625q0.28125 0.078125 0.5 0.1875q0.234375 0.109375 0.375 0.234375q0.140625 -0.15625 0.328125 -0.328125q0.1875 -0.1875 0.40625 -0.328125q0.234375 -0.15625 0.5 -0.25q0.28125 -0.109375 0.609375 -0.109375q0.28125 0 0.484375 0.078125q0.21875 0.078125 0.359375 0.21875q0.140625 0.125 0.203125 0.3125q0.0625 0.171875 0.0625 0.375zm-8.015625 11.453125q0 0.421875 0.109375 0.78125q0.125 0.359375 0.390625 0.609375q0.28125 0.265625 0.75 0.40625q0.484375 0.15625 1.203125 0.15625q1.03125 0 1.6875 -0.171875q0.65625 -0.171875 1.046875 -0.484375q0.390625 -0.296875 0.546875 -0.71875q0.171875 -0.421875 0.171875 -0.921875q0 -0.4375 -0.140625 -0.71875q-0.125 -0.28125 -0.375 -0.453125q-0.234375 -0.15625 -0.59375 -0.21875q-0.359375 -0.0625 -0.84375 -0.0625l-1.859375 0q-0.390625 0 -0.78125 0.078125q-0.375 0.0625 -0.671875 0.25q-0.28125 0.203125 -0.46875 0.546875q-0.171875 0.359375 -0.171875 0.921875zm1.109375 -8.578125q0 1.203125 0.40625 1.78125q0.40625 0.5625 1.328125 0.5625q0.453125 0 0.765625 -0.140625q0.328125 -0.140625 0.53125 -0.421875q0.203125 -0.296875 0.296875 -0.734375q0.09375 -0.453125 0.09375 -1.078125q0 -1.28125 -0.390625 -1.890625q-0.390625 -0.609375 -1.328125 -0.609375q-0.90625 0 -1.3125 0.625q-0.390625 0.625 -0.390625 1.90625zm16.976135 4.84375q0 0.40625 0.125 0.671875q0.125 0.25 0.328125 0.390625q0.21875 0.125 0.5 0.171875q0.28125 0.03125 0.59375 0.03125l0.0625 0l0 0.796875l-3.015625 0l-0.25 -1.546875l-0.09375 0q-0.28125 0.546875 -0.640625 0.890625q-0.34375 0.328125 -0.734375 0.515625q-0.390625 0.1875 -0.8125 0.25q-0.421875 0.078125 -0.890625 0.078125q-0.75 0 -1.34375 -0.203125q-0.578125 -0.21875 -0.984375 -0.671875q-0.390625 -0.46875 -0.609375 -1.171875q-0.203125 -0.703125 -0.203125 -1.671875l0 -4.5625q0 -0.40625 -0.125 -0.65625q-0.125 -0.265625 -0.34375 -0.40625q-0.203125 -0.140625 -0.484375 -0.1875q-0.28125 -0.046875 -0.609375 -0.046875l-0.046875 0l0 -0.796875l3.40625 0l0 6.5625q0 0.625 0.09375 1.109375q0.09375 0.46875 0.3125 0.8125q0.234375 0.328125 0.625 0.5q0.390625 0.171875 0.953125 0.171875q0.640625 0 1.078125 -0.21875q0.453125 -0.21875 0.75 -0.625q0.296875 -0.40625 0.4375 -0.96875q0.140625 -0.578125 0.140625 -1.25l0 -3.921875q0 -0.453125 -0.125 -0.71875q-0.125 -0.28125 -0.34375 -0.421875q-0.203125 -0.140625 -0.484375 -0.1875q-0.28125 -0.046875 -0.609375 -0.046875l-0.0625 0l0 -0.796875l3.40625 0l0 8.125zm7.936096 2.0625l-5.484375 0l0 -0.796875l0.0625 0q0.328125 0 0.609375 -0.046875q0.28125 -0.046875 0.484375 -0.1875q0.21875 -0.140625 0.34375 -0.40625q0.125 -0.28125 0.125 -0.71875l0 -5.9375q0 -0.40625 -0.125 -0.65625q-0.125 -0.265625 -0.34375 -0.40625q-0.21875 -0.140625 -0.5 -0.1875q-0.28125 -0.046875 -0.59375 -0.046875l-0.0625 0l0 -0.796875l2.921875 0l0.375 1.890625l0.09375 0q0.171875 -0.4375 0.359375 -0.8125q0.203125 -0.375 0.484375 -0.65625q0.296875 -0.28125 0.703125 -0.4375q0.421875 -0.171875 1.046875 -0.171875q1.046875 0 1.546875 0.359375q0.515625 0.359375 0.515625 1.03125q0 0.296875 -0.109375 0.546875q-0.09375 0.25 -0.3125 0.4375q-0.203125 0.171875 -0.546875 0.265625q-0.328125 0.09375 -0.8125 0.09375q0 -0.78125 -0.21875 -1.125q-0.21875 -0.359375 -0.78125 -0.359375q-0.359375 0 -0.640625 0.203125q-0.265625 0.203125 -0.484375 0.53125q-0.203125 0.328125 -0.34375 0.765625q-0.140625 0.421875 -0.234375 0.875q-0.09375 0.4375 -0.125 0.890625q-0.03125 0.4375 -0.03125 0.796875l0 3.0q0 0.40625 0.125 0.671875q0.125 0.25 0.328125 0.390625q0.21875 0.125 0.5 0.171875q0.28125 0.03125 0.59375 0.03125l0.53125 0l0 0.796875zm5.4781494 -2.75q0 0.890625 0.375 1.328125q0.375 0.4375 1.15625 0.4375q0.578125 0 1.046875 -0.1875q0.46875 -0.1875 0.796875 -0.53125q0.328125 -0.34375 0.5 -0.828125q0.1875 -0.5 0.1875 -1.09375l0 -1.546875l-1.21875 0.0625q-0.8125 0.03125 -1.359375 0.203125q-0.53125 0.15625 -0.875 0.453125q-0.328125 0.28125 -0.46875 0.71875q-0.140625 0.421875 -0.140625 0.984375zm2.296875 -6.671875q-0.546875 0 -0.890625 0.15625q-0.328125 0.140625 -0.53125 0.421875q-0.1875 0.28125 -0.25 0.671875q-0.0625 0.375 -0.0625 0.8125q-0.796875 0 -1.203125 -0.265625q-0.40625 -0.265625 -0.40625 -0.921875q0 -0.5 0.265625 -0.84375q0.265625 -0.34375 0.734375 -0.5625q0.46875 -0.21875 1.09375 -0.3125q0.625 -0.109375 1.328125 -0.109375q0.875 0 1.515625 0.171875q0.65625 0.171875 1.078125 0.5625q0.4375 0.390625 0.65625 1.015625q0.21875 0.625 0.21875 1.53125l0 4.9375q0 0.390625 0.0625 0.65625q0.078125 0.25 0.21875 0.421875q0.140625 0.15625 0.359375 0.21875q0.234375 0.0625 0.546875 0.0625l0.046875 0l0 0.796875l-2.5625 0l-0.296875 -1.640625l-0.15625 0q-0.296875 0.40625 -0.578125 0.75q-0.28125 0.328125 -0.625 0.578125q-0.328125 0.234375 -0.75 0.359375q-0.421875 0.140625 -1.015625 0.140625q-0.625 0 -1.171875 -0.1875q-0.53125 -0.171875 -0.9375 -0.546875q-0.390625 -0.375 -0.609375 -0.9375q-0.21875 -0.578125 -0.21875 -1.359375q0 -1.515625 1.0625 -2.25q1.078125 -0.734375 3.265625 -0.796875l1.578125 -0.0625l0 -1.140625q0 -0.5 -0.0625 -0.9375q-0.046875 -0.4375 -0.234375 -0.734375q-0.1875 -0.3125 -0.546875 -0.484375q-0.34375 -0.171875 -0.921875 -0.171875zm10.784546 9.609375q-0.9375 0 -1.734375 -0.296875q-0.796875 -0.296875 -1.375 -0.921875q-0.578125 -0.625 -0.90625 -1.609375q-0.3125 -1.0 -0.3125 -2.390625q0 -1.53125 0.3125 -2.546875q0.328125 -1.03125 0.890625 -1.65625q0.578125 -0.625 1.34375 -0.875q0.78125 -0.265625 1.6875 -0.265625q0.59375 0 1.171875 0.125q0.59375 0.109375 1.0625 0.359375q0.484375 0.234375 0.78125 0.609375q0.296875 0.359375 0.296875 0.84375q0 0.65625 -0.4375 0.9375q-0.421875 0.265625 -1.265625 0.265625q0 -0.453125 -0.078125 -0.84375q-0.0625 -0.40625 -0.25 -0.703125q-0.171875 -0.296875 -0.484375 -0.46875q-0.3125 -0.171875 -0.796875 -0.171875q-0.546875 0 -1.0 0.203125q-0.4375 0.203125 -0.75 0.703125q-0.3125 0.5 -0.484375 1.34375q-0.15625 0.84375 -0.15625 2.109375q0 2.03125 0.671875 3.03125q0.671875 0.984375 2.203125 0.984375q0.875 0 1.53125 -0.375q0.65625 -0.375 0.984375 -0.953125q0.140625 0.109375 0.234375 0.296875q0.09375 0.1875 0.09375 0.4375q0 0.328125 -0.203125 0.65625q-0.203125 0.328125 -0.609375 0.59375q-0.40625 0.25 -1.015625 0.40625q-0.59375 0.171875 -1.40625 0.171875zm4.494873 -0.984375q0.3125 0 0.59375 -0.03125q0.28125 -0.046875 0.5 -0.171875q0.21875 -0.140625 0.34375 -0.390625q0.125 -0.265625 0.125 -0.671875l0 -6.03125q0 -0.40625 -0.125 -0.65625q-0.125 -0.265625 -0.34375 -0.40625q-0.21875 -0.140625 -0.5 -0.1875q-0.28125 -0.046875 -0.59375 -0.046875l-0.0625 0l0 -0.796875l3.40625 0l0 8.03125q0 0.4375 0.125 0.71875q0.125 0.265625 0.328125 0.40625q0.203125 0.140625 0.484375 0.1875q0.296875 0.046875 0.609375 0.046875l0.25 0l0 0.796875l-5.390625 0l0 -0.796875l0.25 0zm1.28125 -12.46875q0 -0.328125 0.078125 -0.546875q0.09375 -0.234375 0.234375 -0.375q0.15625 -0.140625 0.34375 -0.1875q0.203125 -0.0625 0.4375 -0.0625q0.21875 0 0.40625 0.0625q0.203125 0.046875 0.34375 0.1875q0.15625 0.140625 0.234375 0.375q0.09375 0.21875 0.09375 0.546875q0 0.328125 -0.09375 0.5625q-0.078125 0.21875 -0.234375 0.359375q-0.140625 0.140625 -0.34375 0.203125q-0.1875 0.046875 -0.40625 0.046875q-0.234375 0 -0.4375 -0.046875q-0.1875 -0.0625 -0.34375 -0.203125q-0.140625 -0.140625 -0.234375 -0.359375q-0.078125 -0.234375 -0.078125 -0.5625zm13.9198 8.15625q0 2.671875 -1.140625 3.984375q-1.140625 1.3125 -3.328125 1.3125q-1.03125 0 -1.84375 -0.328125q-0.8125 -0.328125 -1.390625 -0.984375q-0.5625 -0.65625 -0.875 -1.65625q-0.296875 -1.0 -0.296875 -2.328125q0 -2.671875 1.125 -3.96875q1.125 -1.296875 3.34375 -1.296875q1.03125 0 1.84375 0.328125q0.8125 0.3125 1.375 0.96875q0.578125 0.65625 0.875 1.640625q0.3125 0.984375 0.3125 2.328125zm-7.03125 0q0 1.0625 0.125 1.875q0.140625 0.796875 0.453125 1.34375q0.3125 0.53125 0.8125 0.8125q0.5 0.28125 1.21875 0.28125q0.703125 0 1.1875 -0.28125q0.5 -0.28125 0.796875 -0.8125q0.3125 -0.546875 0.453125 -1.34375q0.140625 -0.8125 0.140625 -1.875q0 -1.0625 -0.140625 -1.859375q-0.140625 -0.796875 -0.453125 -1.328125q-0.296875 -0.53125 -0.796875 -0.796875q-0.5 -0.28125 -1.21875 -0.28125q-0.703125 0 -1.203125 0.28125q-0.484375 0.265625 -0.796875 0.796875q-0.3125 0.53125 -0.453125 1.328125q-0.125 0.796875 -0.125 1.859375zm1.734375 -6.65625q0.21875 -0.265625 0.4375 -0.609375q0.234375 -0.359375 0.453125 -0.734375q0.21875 -0.375 0.40625 -0.75q0.203125 -0.375 0.359375 -0.703125l2.03125 0l0 0.203125q-0.171875 0.25 -0.515625 0.625q-0.34375 0.375 -0.765625 0.78125q-0.421875 0.40625 -0.859375 0.796875q-0.4375 0.390625 -0.828125 0.640625l-0.71875 0l0 -0.25zm11.783081 10.96875l0 0.796875l-5.109375 0l0 -0.796875l0.15625 0q0.328125 0 0.609375 -0.046875q0.28125 -0.046875 0.484375 -0.1875q0.21875 -0.140625 0.34375 -0.40625q0.125 -0.28125 0.125 -0.71875l0 -5.9375q0 -0.40625 -0.125 -0.65625q-0.125 -0.265625 -0.34375 -0.40625q-0.21875 -0.140625 -0.5 -0.1875q-0.28125 -0.046875 -0.59375 -0.046875l-0.0625 0l0 -0.796875l3.078125 0l0.25 1.546875l0.09375 0q0.296875 -0.53125 0.625 -0.875q0.328125 -0.34375 0.6875 -0.53125q0.375 -0.1875 0.78125 -0.25q0.421875 -0.078125 0.875 -0.078125q0.75 0 1.328125 0.21875q0.59375 0.21875 1.0 0.671875q0.421875 0.453125 0.640625 1.15625q0.21875 0.703125 0.21875 1.671875l0 4.5q0 0.4375 0.109375 0.71875q0.109375 0.265625 0.296875 0.40625q0.203125 0.140625 0.46875 0.1875q0.265625 0.046875 0.578125 0.046875l0.078125 0l0 0.796875l-3.3125 0l0 -6.5625q0 -0.625 -0.125 -1.09375q-0.109375 -0.484375 -0.359375 -0.8125q-0.234375 -0.34375 -0.640625 -0.515625q-0.390625 -0.171875 -0.96875 -0.171875q-0.65625 0 -1.09375 0.25q-0.4375 0.25 -0.703125 0.6875q-0.265625 0.421875 -0.390625 0.984375q-0.109375 0.546875 -0.109375 1.15625l0 4.015625q0 0.40625 0.125 0.671875q0.125 0.25 0.328125 0.390625q0.21875 0.125 0.5 0.171875q0.28125 0.03125 0.59375 0.03125l0.0625 0z" fill-rule="nonzero"/><path fill="#d9d9d9" d="m15.368767 231.31242l184.50394 0l0 45.795273l-184.50394 0z" fill-rule="nonzero"/><path fill="#000000" d="m51.391907 256.59882l-0.71875 1.984375q-0.09375 0.234375 -0.140625 0.453125q-0.046875 0.203125 -0.046875 0.375q0 0.46875 0.3125 0.703125q0.3125 0.21875 0.953125 0.21875l0.4375 0l0 0.796875l-4.640625 0l0 -0.796875l0.359375 0q0.28125 0 0.46875 -0.0625q0.203125 -0.0625 0.359375 -0.21875q0.15625 -0.171875 0.296875 -0.453125q0.15625 -0.296875 0.328125 -0.75l4.203125 -11.281265l1.484375 0l4.296875 11.750015q0.109375 0.296875 0.21875 0.5q0.125 0.1875 0.28125 0.3125q0.15625 0.109375 0.359375 0.15625q0.21875 0.046875 0.484375 0.046875l0.25 0l0 0.796875l-5.21875 0l0 -0.796875l0.4375 0q1.140625 0 1.140625 -0.90625q0 -0.15625 -0.046875 -0.328125q-0.03125 -0.171875 -0.109375 -0.375l-0.765625 -2.125l-4.984375 0zm3.46875 -4.2812653q-0.296875 -0.84375 -0.546875 -1.578125q-0.25 -0.75 -0.40625 -1.421875q-0.0625 0.34375 -0.15625 0.65625q-0.078125 0.3125 -0.1875 0.65625q-0.09375 0.328125 -0.234375 0.703125q-0.125 0.359375 -0.28125 0.8125l-1.296875 3.484375l4.28125 0l-1.171875 -3.3125zm15.857239 6.7500153q0 0.40625 0.125 0.671875q0.125 0.25 0.328125 0.390625q0.21875 0.125 0.5 0.171875q0.28125 0.03125 0.59375 0.03125l0.0625 0l0 0.796875l-3.015625 0l-0.25 -1.546875l-0.09375 0q-0.28125 0.546875 -0.640625 0.890625q-0.34375 0.328125 -0.734375 0.515625q-0.390625 0.1875 -0.8125 0.25q-0.421875 0.078125 -0.890625 0.078125q-0.75 0 -1.34375 -0.203125q-0.578125 -0.21875 -0.984375 -0.671875q-0.390625 -0.46875 -0.609375 -1.171875q-0.203125 -0.703125 -0.203125 -1.671875l0 -4.5625153q0 -0.40625 -0.125 -0.65625q-0.125 -0.265625 -0.34375 -0.40625q-0.203125 -0.140625 -0.484375 -0.1875q-0.28125 -0.046875 -0.609375 -0.046875l-0.046875 0l0 -0.796875l3.40625 0l0 6.5625153q0 0.625 0.09375 1.109375q0.09375 0.46875 0.3125 0.8125q0.234375 0.328125 0.625 0.5q0.390625 0.171875 0.953125 0.171875q0.640625 0 1.078125 -0.21875q0.453125 -0.21875 0.75 -0.625q0.296875 -0.40625 0.4375 -0.96875q0.140625 -0.578125 0.140625 -1.25l0 -3.9218903q0 -0.453125 -0.125 -0.71875q-0.125 -0.28125 -0.34375 -0.421875q-0.203125 -0.140625 -0.484375 -0.1875q-0.28125 -0.046875 -0.609375 -0.046875l-0.0625 0l0 -0.796875l3.40625 0l0 8.125015zm11.436096 -0.03125q0 0.421875 0.125 0.6875q0.125 0.25 0.328125 0.390625q0.21875 0.140625 0.5 0.1875q0.296875 0.03125 0.609375 0.03125l0.15625 0l0 0.796875l-3.21875 0l-0.203125 -1.703125l-0.078125 0q-0.21875 0.4375 -0.5 0.78125q-0.265625 0.34375 -0.625 0.59375q-0.34375 0.25 -0.796875 0.375q-0.4375 0.140625 -0.984375 0.140625q-0.9375 0 -1.671875 -0.3125q-0.71875 -0.3125 -1.21875 -0.953125q-0.484375 -0.640625 -0.734375 -1.640625q-0.25 -1.0 -0.25 -2.359375q0 -1.3750153 0.25 -2.3750153q0.25 -1.0 0.734375 -1.640625q0.5 -0.65625 1.21875 -0.96875q0.734375 -0.3125 1.671875 -0.3125q0.546875 0 0.984375 0.125q0.453125 0.125 0.796875 0.34375q0.359375 0.21875 0.640625 0.53125q0.28125 0.296875 0.484375 0.671875l0.109375 0q-0.03125 -0.46875 -0.046875 -0.875q-0.015625 -0.34375 -0.046875 -0.6875q-0.015625 -0.359375 -0.015625 -0.53125l0 -1.546875q0 -0.421875 -0.125 -0.671875q-0.125 -0.265625 -0.34375 -0.390625q-0.203125 -0.140625 -0.484375 -0.1875q-0.28125 -0.046875 -0.609375 -0.046875l-0.15625 0l0 -0.796875l3.5 0l0 12.343765zm-4.375 1.0625q0.75 0 1.25 -0.234375q0.5 -0.25 0.796875 -0.75q0.296875 -0.515625 0.421875 -1.265625q0.125 -0.765625 0.125 -1.796875q0 -0.98439026 -0.125 -1.7500153q-0.125 -0.765625 -0.421875 -1.28125q-0.296875 -0.515625 -0.8125 -0.78125q-0.5 -0.265625 -1.25 -0.265625q-0.609375 0 -1.0625 0.265625q-0.4375 0.265625 -0.734375 0.796875q-0.28125 0.515625 -0.40625 1.28125q-0.125 0.765625 -0.125 1.7500153q0 2.03125 0.546875 3.03125q0.546875 1.0 1.796875 1.0zm6.903763 0.234375q0.3125 0 0.59375 -0.03125q0.28125 -0.046875 0.5 -0.171875q0.21875 -0.140625 0.34375 -0.390625q0.125 -0.265625 0.125 -0.671875l0 -6.0312653q0 -0.40625 -0.125 -0.65625q-0.125 -0.265625 -0.34375 -0.40625q-0.21875 -0.140625 -0.5 -0.1875q-0.28125 -0.046875 -0.59375 -0.046875l-0.0625 0l0 -0.796875l3.40625 0l0 8.031265q0 0.4375 0.125 0.71875q0.125 0.265625 0.328125 0.40625q0.203125 0.140625 0.484375 0.1875q0.296875 0.046875 0.609375 0.046875l0.25 0l0 0.796875l-5.390625 0l0 -0.796875l0.25 0zm1.28125 -12.468765q0 -0.328125 0.078125 -0.546875q0.09375 -0.234375 0.234375 -0.375q0.15625 -0.140625 0.34375 -0.1875q0.203125 -0.0625 0.4375 -0.0625q0.21875 0 0.40625 0.0625q0.203125 0.046875 0.34375 0.1875q0.15625 0.140625 0.234375 0.375q0.09375 0.21875 0.09375 0.546875q0 0.328125 -0.09375 0.5625q-0.078125 0.21875 -0.234375 0.359375q-0.140625 0.140625 -0.34375 0.203125q-0.1875 0.046875 -0.40625 0.046875q-0.234375 0 -0.4375 -0.046875q-0.1875 -0.0625 -0.34375 -0.203125q-0.140625 -0.140625 -0.234375 -0.359375q-0.078125 -0.234375 -0.078125 -0.5625zm13.919846 8.156265q0 2.671875 -1.140625 3.984375q-1.140625 1.3125 -3.328125 1.3125q-1.03125 0 -1.84375 -0.328125q-0.8125 -0.328125 -1.390625 -0.984375q-0.5625 -0.65625 -0.875 -1.65625q-0.296875 -1.0 -0.296875 -2.328125q0 -2.6718903 1.125 -3.9687653q1.125 -1.296875 3.34375 -1.296875q1.03125 0 1.84375 0.328125q0.8125 0.3125 1.375 0.96875q0.578125 0.65625 0.875 1.640625q0.3125 0.984375 0.3125 2.3281403zm-7.03125 0q0 1.0625 0.125 1.875q0.140625 0.796875 0.453125 1.34375q0.3125 0.53125 0.8125 0.8125q0.5 0.28125 1.21875 0.28125q0.703125 0 1.1875 -0.28125q0.5 -0.28125 0.796875 -0.8125q0.3125 -0.546875 0.453125 -1.34375q0.140625 -0.8125 0.140625 -1.875q0 -1.0625153 -0.140625 -1.8593903q-0.140625 -0.796875 -0.453125 -1.328125q-0.296875 -0.53125 -0.796875 -0.796875q-0.5 -0.28125 -1.21875 -0.28125q-0.703125 0 -1.203125 0.28125q-0.484375 0.265625 -0.796875 0.796875q-0.3125 0.53125 -0.453125 1.328125q-0.125 0.796875 -0.125 1.8593903zm25.738678 -1.6875153q0 1.5625 -0.390625 2.8593903q-0.390625 1.28125 -1.15625 2.203125q-0.75 0.921875 -1.875 1.421875q-1.109375 0.5 -2.546875 0.5q-1.515625 0 -2.640625 -0.5q-1.109375 -0.5 -1.859375 -1.421875q-0.734375 -0.921875 -1.109375 -2.203125q-0.375 -1.2968903 -0.375 -2.8750153q0 -1.578125 0.375 -2.859375q0.375 -1.296875 1.109375 -2.203125q0.75 -0.90625 1.875 -1.40625q1.140625 -0.5 2.640625 -0.5q1.4375 0 2.546875 0.5q1.109375 0.5 1.859375 1.421875q0.765625 0.90625 1.15625 2.1875q0.390625 1.28125 0.390625 2.875zm-9.84375 0q0 1.40625 0.203125 2.5156403q0.21875 1.109375 0.671875 1.875q0.46875 0.765625 1.203125 1.171875q0.75 0.40625 1.796875 0.40625q1.0625 0 1.796875 -0.40625q0.734375 -0.40625 1.1875 -1.171875q0.46875 -0.765625 0.671875 -1.875q0.203125 -1.1093903 0.203125 -2.5156403q0 -1.40625 -0.203125 -2.515625q-0.203125 -1.109375 -0.671875 -1.875q-0.453125 -0.765625 -1.1875 -1.15625q-0.71875 -0.40625 -1.78125 -0.40625q-1.046875 0 -1.796875 0.40625q-0.734375 0.390625 -1.203125 1.15625q-0.46875 0.765625 -0.6875 1.875q-0.203125 1.109375 -0.203125 2.515625zm20.690186 4.7343903q0 0.40625 0.125 0.671875q0.125 0.25 0.328125 0.390625q0.21875 0.125 0.5 0.171875q0.28125 0.03125 0.59375 0.03125l0.0625 0l0 0.796875l-3.015625 0l-0.25 -1.546875l-0.09375 0q-0.28125 0.546875 -0.640625 0.890625q-0.34375 0.328125 -0.734375 0.515625q-0.390625 0.1875 -0.8125 0.25q-0.421875 0.078125 -0.890625 0.078125q-0.75 0 -1.34375 -0.203125q-0.578125 -0.21875 -0.984375 -0.671875q-0.390625 -0.46875 -0.609375 -1.171875q-0.203125 -0.703125 -0.203125 -1.671875l0 -4.5625153q0 -0.40625 -0.125 -0.65625q-0.125 -0.265625 -0.34375 -0.40625q-0.203125 -0.140625 -0.484375 -0.1875q-0.28125 -0.046875 -0.609375 -0.046875l-0.046875 0l0 -0.796875l3.40625 0l0 6.5625153q0 0.625 0.09375 1.109375q0.09375 0.46875 0.3125 0.8125q0.234375 0.328125 0.625 0.5q0.390625 0.171875 0.953125 0.171875q0.640625 0 1.078125 -0.21875q0.453125 -0.21875 0.75 -0.625q0.296875 -0.40625 0.4375 -0.96875q0.140625 -0.578125 0.140625 -1.25l0 -3.9218903q0 -0.453125 -0.125 -0.71875q-0.125 -0.28125 -0.34375 -0.421875q-0.203125 -0.140625 -0.484375 -0.1875q-0.28125 -0.046875 -0.609375 -0.046875l-0.0625 0l0 -0.796875l3.40625 0l0 8.125015zm6.857971 1.25q0.34375 0 0.625 -0.03125q0.296875 -0.046875 0.59375 -0.109375l0 0.84375q-0.125 0.046875 -0.3125 0.109375q-0.1875 0.0625 -0.421875 0.09375q-0.234375 0.046875 -0.484375 0.0625q-0.25 0.03125 -0.46875 0.03125q-0.71875 0 -1.25 -0.15625q-0.515625 -0.15625 -0.84375 -0.5q-0.328125 -0.34375 -0.5 -0.90625q-0.15625 -0.5625 -0.15625 -1.375l0 -6.3437653l-1.453125 0l0 -0.765625q0.34375 0 0.75 -0.140625q0.421875 -0.140625 0.734375 -0.46875q0.328125 -0.34375 0.515625 -0.828125q0.203125 -0.5 0.359375 -1.234375l0.875 0l0 2.34375l2.484375 0l0 1.09375l-2.484375 0l0 6.3906403q0 0.984375 0.390625 1.4375q0.390625 0.453125 1.046875 0.453125zm7.9585724 -8.343765q-0.75 0 -1.25 0.25q-0.484375 0.234375 -0.78125 0.75q-0.296875 0.5 -0.421875 1.265625q-0.125 0.75 -0.125 1.7812653q0 0.984375 0.125 1.75q0.125 0.765625 0.421875 1.28125q0.296875 0.515625 0.796875 0.78125q0.5 0.265625 1.25 0.265625q0.625 0 1.0625 -0.265625q0.453125 -0.265625 0.734375 -0.78125q0.28125 -0.515625 0.40625 -1.28125q0.140625 -0.765625 0.140625 -1.765625q0 -1.0156403 -0.140625 -1.7656403q-0.125 -0.765625 -0.40625 -1.265625q-0.28125 -0.5 -0.734375 -0.75q-0.453125 -0.25 -1.078125 -0.25zm4.203125 4.0468903q0 1.375 -0.265625 2.375q-0.25 1.0 -0.75 1.65625q-0.484375 0.640625 -1.203125 0.953125q-0.71875 0.3125 -1.65625 0.3125q-0.546875 0 -1.0 -0.125q-0.4375 -0.125 -0.796875 -0.34375q-0.359375 -0.21875 -0.640625 -0.515625q-0.265625 -0.3125 -0.46875 -0.6875l-0.078125 0q0.015625 0.484375 0.03125 0.921875q0.015625 0.171875 0.015625 0.359375q0.015625 0.1875 0.015625 0.359375q0 0.171875 0 0.296875q0.015625 0.140625 0.015625 0.21875l0 1.8125q0 0.421875 0.125 0.671875q0.125 0.265625 0.328125 0.390625q0.21875 0.140625 0.5 0.171875q0.28125 0.046875 0.609375 0.046875l0.046875 0l0 0.796875l-5.109375 0l0 -0.796875l0.140625 0q0.328125 0 0.609375 -0.046875q0.28125 -0.046875 0.484375 -0.1875q0.21875 -0.140625 0.34375 -0.421875q0.125 -0.265625 0.125 -0.71875l0 -10.48439q0 -0.40625 -0.125 -0.65625q-0.125 -0.265625 -0.34375 -0.40625q-0.203125 -0.140625 -0.484375 -0.1875q-0.28125 -0.046875 -0.609375 -0.046875l-0.234375 0l0 -0.796875l3.328125 0l0.1875 1.71875l0.078125 0q0.203125 -0.4375 0.46875 -0.78125q0.28125 -0.359375 0.625 -0.609375q0.359375 -0.25 0.796875 -0.375q0.453125 -0.140625 1.015625 -0.140625q0.9375 0 1.65625 0.3125q0.71875 0.3125 1.203125 0.953125q0.5 0.640625 0.75 1.640625q0.265625 1.0 0.265625 2.3593903zm10.841248 3.046875q0 0.40625 0.125 0.671875q0.125 0.25 0.328125 0.390625q0.21875 0.125 0.5 0.171875q0.28125 0.03125 0.59375 0.03125l0.0625 0l0 0.796875l-3.015625 0l-0.25 -1.546875l-0.09375 0q-0.28125 0.546875 -0.640625 0.890625q-0.34375 0.328125 -0.734375 0.515625q-0.390625 0.1875 -0.8125 0.25q-0.421875 0.078125 -0.890625 0.078125q-0.75 0 -1.34375 -0.203125q-0.578125 -0.21875 -0.984375 -0.671875q-0.390625 -0.46875 -0.609375 -1.171875q-0.203125 -0.703125 -0.203125 -1.671875l0 -4.5625153q0 -0.40625 -0.125 -0.65625q-0.125 -0.265625 -0.34375 -0.40625q-0.203125 -0.140625 -0.484375 -0.1875q-0.28125 -0.046875 -0.609375 -0.046875l-0.046875 0l0 -0.796875l3.40625 0l0 6.5625153q0 0.625 0.09375 1.109375q0.09375 0.46875 0.3125 0.8125q0.234375 0.328125 0.625 0.5q0.390625 0.171875 0.953125 0.171875q0.640625 0 1.078125 -0.21875q0.453125 -0.21875 0.75 -0.625q0.296875 -0.40625 0.4375 -0.96875q0.140625 -0.578125 0.140625 -1.25l0 -3.9218903q0 -0.453125 -0.125 -0.71875q-0.125 -0.28125 -0.34375 -0.421875q-0.203125 -0.140625 -0.484375 -0.1875q-0.28125 -0.046875 -0.609375 -0.046875l-0.0625 0l0 -0.796875l3.40625 0l0 8.125015zm6.857971 1.25q0.34375 0 0.625 -0.03125q0.296875 -0.046875 0.59375 -0.109375l0 0.84375q-0.125 0.046875 -0.3125 0.109375q-0.1875 0.0625 -0.421875 0.09375q-0.234375 0.046875 -0.484375 0.0625q-0.25 0.03125 -0.46875 0.03125q-0.71875 0 -1.25 -0.15625q-0.515625 -0.15625 -0.84375 -0.5q-0.328125 -0.34375 -0.5 -0.90625q-0.15625 -0.5625 -0.15625 -1.375l0 -6.3437653l-1.453125 0l0 -0.765625q0.34375 0 0.75 -0.140625q0.421875 -0.140625 0.734375 -0.46875q0.328125 -0.34375 0.515625 -0.828125q0.203125 -0.5 0.359375 -1.234375l0.875 0l0 2.34375l2.484375 0l0 1.09375l-2.484375 0l0 6.3906403q0 0.984375 0.390625 1.4375q0.390625 0.453125 1.046875 0.453125z" fill-rule="nonzero"/><path fill="#d9d9d9" d="m15.368767 168.06044l184.50394 0l0 45.795273l-184.50394 0z" fill-rule="nonzero"/><path fill="#000000" d="m57.545128 191.08119q0 1.5625 -0.390625 2.8125q-0.390625 1.25 -1.171875 2.140625q-0.765625 0.890625 -1.921875 1.375q-1.15625 0.46875 -2.703125 0.46875l-5.828125 0l0 -0.796875l0.25 0q0.328125 0 0.609375 -0.046875q0.28125 -0.046875 0.484375 -0.1875q0.21875 -0.140625 0.34375 -0.40625q0.125 -0.28125 0.125 -0.71875l0 -9.3125q0 -0.421875 -0.140625 -0.671875q-0.125 -0.265625 -0.34375 -0.40625q-0.203125 -0.140625 -0.484375 -0.171875q-0.28125 -0.046875 -0.59375 -0.046875l-0.25 0l0 -0.796875l5.828125 0q1.453125 0 2.609375 0.453125q1.15625 0.453125 1.9375 1.3125q0.796875 0.859375 1.21875 2.125q0.421875 1.25 0.421875 2.875zm-6.640625 5.828125q1.140625 0 1.984375 -0.375q0.84375 -0.390625 1.40625 -1.125q0.578125 -0.75 0.859375 -1.828125q0.28125 -1.09375 0.28125 -2.5q0 -2.828125 -1.125 -4.328125q-1.125 -1.5 -3.390625 -1.5l-1.671875 0l0 11.65625l1.65625 0zm12.689041 -8.390625q-1.046875 0 -1.625 0.859375q-0.5625 0.859375 -0.671875 2.515625l4.375 0q0 -0.75 -0.125 -1.375q-0.109375 -0.625 -0.34375 -1.0625q-0.234375 -0.453125 -0.640625 -0.6875q-0.390625 -0.25 -0.96875 -0.25zm0.234375 9.546875q-1.03125 0 -1.859375 -0.34375q-0.8125 -0.359375 -1.375 -1.015625q-0.5625 -0.671875 -0.875 -1.640625q-0.296875 -0.96875 -0.296875 -2.203125q0 -2.671875 1.09375 -4.015625q1.09375 -1.34375 3.125 -1.34375q0.90625 0 1.640625 0.296875q0.734375 0.28125 1.25 0.859375q0.515625 0.5625 0.78125 1.421875q0.28125 0.84375 0.28125 1.96875l0 0.859375l-6.328125 0q0.015625 1.046875 0.203125 1.796875q0.1875 0.734375 0.546875 1.21875q0.359375 0.484375 0.875 0.71875q0.515625 0.21875 1.203125 0.21875q0.484375 0 0.90625 -0.109375q0.421875 -0.109375 0.765625 -0.296875q0.34375 -0.1875 0.609375 -0.421875q0.265625 -0.234375 0.4375 -0.5q0.125 0.0625 0.234375 0.234375q0.125 0.171875 0.125 0.421875q0 0.28125 -0.203125 0.609375q-0.203125 0.328125 -0.625 0.609375q-0.421875 0.28125 -1.046875 0.46875q-0.625 0.1875 -1.46875 0.1875zm9.905884 0q-0.9375 0 -1.734375 -0.296875q-0.796875 -0.296875 -1.375 -0.921875q-0.578125 -0.625 -0.90625 -1.609375q-0.3125 -1.0 -0.3125 -2.390625q0 -1.53125 0.3125 -2.546875q0.328125 -1.03125 0.890625 -1.65625q0.578125 -0.625 1.34375 -0.875q0.78125 -0.265625 1.6875 -0.265625q0.59375 0 1.171875 0.125q0.59375 0.109375 1.0625 0.359375q0.484375 0.234375 0.78125 0.609375q0.296875 0.359375 0.296875 0.84375q0 0.65625 -0.4375 0.9375q-0.421875 0.265625 -1.265625 0.265625q0 -0.453125 -0.078125 -0.84375q-0.0625 -0.40625 -0.25 -0.703125q-0.171875 -0.296875 -0.484375 -0.46875q-0.3125 -0.171875 -0.796875 -0.171875q-0.546875 0 -1.0 0.203125q-0.4375 0.203125 -0.75 0.703125q-0.3125 0.5 -0.484375 1.34375q-0.15625 0.84375 -0.15625 2.109375q0 2.03125 0.671875 3.03125q0.671875 0.984375 2.203125 0.984375q0.875 0 1.53125 -0.375q0.65625 -0.375 0.984375 -0.953125q0.140625 0.109375 0.234375 0.296875q0.09375 0.1875 0.09375 0.4375q0 0.328125 -0.203125 0.65625q-0.203125 0.328125 -0.609375 0.59375q-0.40625 0.25 -1.015625 0.40625q-0.59375 0.171875 -1.40625 0.171875zm4.494873 -0.984375q0.3125 0 0.59375 -0.03125q0.28125 -0.046875 0.5 -0.171875q0.21875 -0.140625 0.34375 -0.390625q0.125 -0.265625 0.125 -0.671875l0 -6.03125q0 -0.40625 -0.125 -0.65625q-0.125 -0.265625 -0.34375 -0.40625q-0.21875 -0.140625 -0.5 -0.1875q-0.28125 -0.046875 -0.59375 -0.046875l-0.0625 0l0 -0.796875l3.40625 0l0 8.03125q0 0.4375 0.125 0.71875q0.125 0.265625 0.328125 0.40625q0.203125 0.140625 0.484375 0.1875q0.296875 0.046875 0.609375 0.046875l0.25 0l0 0.796875l-5.390625 0l0 -0.796875l0.25 0zm1.28125 -12.46875q0 -0.328125 0.078125 -0.546875q0.09375 -0.234375 0.234375 -0.375q0.15625 -0.140625 0.34375 -0.1875q0.203125 -0.0625 0.4375 -0.0625q0.21875 0 0.40625 0.0625q0.203125 0.046875 0.34375 0.1875q0.15625 0.140625 0.234375 0.375q0.09375 0.21875 0.09375 0.546875q0 0.328125 -0.09375 0.5625q-0.078125 0.21875 -0.234375 0.359375q-0.140625 0.140625 -0.34375 0.203125q-0.1875 0.046875 -0.40625 0.046875q-0.234375 0 -0.4375 -0.046875q-0.1875 -0.0625 -0.34375 -0.203125q-0.140625 -0.140625 -0.234375 -0.359375q-0.078125 -0.234375 -0.078125 -0.5625zm14.622971 8.15625q0 1.375 -0.265625 2.375q-0.25 1.0 -0.75 1.65625q-0.484375 0.640625 -1.203125 0.953125q-0.71875 0.3125 -1.65625 0.3125q-0.546875 0 -1.0 -0.125q-0.4375 -0.125 -0.796875 -0.34375q-0.359375 -0.21875 -0.640625 -0.515625q-0.265625 -0.3125 -0.46875 -0.6875l-0.125 0l-0.328125 1.484375l-3.046875 0l0 -0.796875l0.140625 0q0.328125 0 0.609375 -0.046875q0.28125 -0.046875 0.484375 -0.1875q0.21875 -0.140625 0.34375 -0.40625q0.125 -0.28125 0.125 -0.71875l0 -10.1875q0 -0.421875 -0.125 -0.671875q-0.125 -0.265625 -0.34375 -0.390625q-0.203125 -0.140625 -0.484375 -0.1875q-0.28125 -0.046875 -0.609375 -0.046875l-0.140625 0l0 -0.796875l3.5 0l0 3.484375q0 0.328125 -0.015625 0.75q0 0.421875 -0.03125 0.8125q-0.015625 0.453125 -0.03125 0.921875l0.078125 0q0.203125 -0.4375 0.46875 -0.78125q0.28125 -0.359375 0.625 -0.609375q0.359375 -0.25 0.796875 -0.375q0.453125 -0.140625 1.015625 -0.140625q0.9375 0 1.65625 0.3125q0.71875 0.3125 1.203125 0.953125q0.5 0.640625 0.75 1.640625q0.265625 1.0 0.265625 2.359375zm-4.203125 -4.046875q-0.75 0 -1.25 0.25q-0.484375 0.234375 -0.78125 0.75q-0.296875 0.5 -0.421875 1.265625q-0.125 0.75 -0.125 1.78125q0 0.984375 0.125 1.75q0.125 0.765625 0.421875 1.28125q0.296875 0.515625 0.796875 0.78125q0.5 0.265625 1.25 0.265625q0.625 0 1.0625 -0.265625q0.453125 -0.265625 0.734375 -0.78125q0.28125 -0.515625 0.40625 -1.28125q0.140625 -0.765625 0.140625 -1.765625q0 -1.015625 -0.140625 -1.765625q-0.125 -0.765625 -0.40625 -1.265625q-0.28125 -0.5 -0.734375 -0.75q-0.453125 -0.25 -1.078125 -0.25zm10.247513 -0.203125q-1.046875 0 -1.625 0.859375q-0.5625 0.859375 -0.671875 2.515625l4.375 0q0 -0.75 -0.125 -1.375q-0.109375 -0.625 -0.34375 -1.0625q-0.234375 -0.453125 -0.640625 -0.6875q-0.390625 -0.25 -0.96875 -0.25zm0.234375 9.546875q-1.03125 0 -1.859375 -0.34375q-0.8125 -0.359375 -1.375 -1.015625q-0.5625 -0.671875 -0.875 -1.640625q-0.296875 -0.96875 -0.296875 -2.203125q0 -2.671875 1.09375 -4.015625q1.09375 -1.34375 3.125 -1.34375q0.90625 0 1.640625 0.296875q0.734375 0.28125 1.25 0.859375q0.515625 0.5625 0.78125 1.421875q0.28125 0.84375 0.28125 1.96875l0 0.859375l-6.328125 0q0.015625 1.046875 0.203125 1.796875q0.1875 0.734375 0.546875 1.21875q0.359375 0.484375 0.875 0.71875q0.515625 0.21875 1.203125 0.21875q0.484375 0 0.90625 -0.109375q0.421875 -0.109375 0.765625 -0.296875q0.34375 -0.1875 0.609375 -0.421875q0.265625 -0.234375 0.4375 -0.5q0.125 0.0625 0.234375 0.234375q0.125 0.171875 0.125 0.421875q0 0.28125 -0.203125 0.609375q-0.203125 0.328125 -0.625 0.609375q-0.421875 0.28125 -1.046875 0.46875q-0.625 0.1875 -1.46875 0.1875zm5.015259 -0.984375q0.328125 0 0.609375 -0.046875q0.28125 -0.046875 0.484375 -0.1875q0.21875 -0.140625 0.34375 -0.40625q0.125 -0.28125 0.125 -0.71875l0 -10.1875q0 -0.421875 -0.125 -0.671875q-0.125 -0.265625 -0.34375 -0.390625q-0.203125 -0.140625 -0.484375 -0.1875q-0.28125 -0.046875 -0.609375 -0.046875l-0.234375 0l0 -0.796875l3.59375 0l0 12.28125q0 0.4375 0.109375 0.71875q0.125 0.265625 0.34375 0.40625q0.21875 0.140625 0.5 0.1875q0.28125 0.046875 0.609375 0.046875l0.234375 0l0 0.796875l-5.390625 0l0 -0.796875l0.234375 0zm5.9876556 0q0.3125 0 0.59375 -0.03125q0.28125 -0.046875 0.5 -0.171875q0.21875 -0.140625 0.34375 -0.390625q0.125 -0.265625 0.125 -0.671875l0 -6.03125q0 -0.40625 -0.125 -0.65625q-0.125 -0.265625 -0.34375 -0.40625q-0.21875 -0.140625 -0.5 -0.1875q-0.28125 -0.046875 -0.59375 -0.046875l-0.0625 0l0 -0.796875l3.40625 0l0 8.03125q0 0.4375 0.125 0.71875q0.125 0.265625 0.328125 0.40625q0.203125 0.140625 0.484375 0.1875q0.296875 0.046875 0.609375 0.046875l0.25 0l0 0.796875l-5.390625 0l0 -0.796875l0.25 0zm1.28125 -12.46875q0 -0.328125 0.078125 -0.546875q0.09375 -0.234375 0.234375 -0.375q0.15625 -0.140625 0.34375 -0.1875q0.203125 -0.0625 0.4375 -0.0625q0.21875 0 0.40625 0.0625q0.203125 0.046875 0.34375 0.1875q0.15625 0.140625 0.234375 0.375q0.09375 0.21875 0.09375 0.546875q0 0.328125 -0.09375 0.5625q-0.078125 0.21875 -0.234375 0.359375q-0.140625 0.140625 -0.34375 0.203125q-0.1875 0.046875 -0.40625 0.046875q-0.234375 0 -0.4375 -0.046875q-0.1875 -0.0625 -0.34375 -0.203125q-0.140625 -0.140625 -0.234375 -0.359375q-0.078125 -0.234375 -0.078125 -0.5625zm9.638596 12.46875l0 0.796875l-5.109375 0l0 -0.796875l0.25 0q0.328125 0 0.59375 -0.046875q0.265625 -0.046875 0.453125 -0.1875q0.203125 -0.140625 0.3125 -0.40625q0.109375 -0.28125 0.109375 -0.71875l0 -5.9375q0 -0.40625 -0.125 -0.65625q-0.109375 -0.265625 -0.296875 -0.40625q-0.1875 -0.140625 -0.46875 -0.1875q-0.265625 -0.046875 -0.578125 -0.046875l-0.0625 0l0 -0.796875l2.984375 0l0.25 1.546875l0.09375 0q0.28125 -0.53125 0.59375 -0.875q0.328125 -0.34375 0.671875 -0.53125q0.359375 -0.1875 0.75 -0.25q0.40625 -0.078125 0.84375 -0.078125q0.46875 0 0.875 0.09375q0.421875 0.09375 0.78125 0.296875q0.359375 0.203125 0.640625 0.53125q0.28125 0.328125 0.46875 0.8125l0.15625 0q0.28125 -0.53125 0.609375 -0.875q0.34375 -0.34375 0.71875 -0.53125q0.37499237 -0.1875 0.7812424 -0.25q0.421875 -0.078125 0.859375 -0.078125q0.734375 0 1.296875 0.21875q0.578125 0.21875 0.96875 0.671875q0.40625 0.453125 0.625 1.15625q0.21875 0.703125 0.21875 1.671875l0 4.5q0 0.4375 0.109375 0.71875q0.109375 0.265625 0.296875 0.40625q0.203125 0.140625 0.46875 0.1875q0.265625 0.046875 0.59375 0.046875l0.046875 0l0 0.796875l-3.296875 0l0 -6.5625q0 -0.625 -0.109375 -1.09375q-0.109375 -0.484375 -0.34375 -0.8125q-0.234375 -0.34375 -0.625 -0.515625q-0.375 -0.171875 -0.921875 -0.171875q-0.59375 0 -0.9999924 0.234375q-0.40625 0.21875 -0.65625 0.609375q-0.25 0.390625 -0.359375 0.90625q-0.09375 0.5 -0.09375 1.078125l0 4.171875q0 0.4375 0.109375 0.71875q0.109375 0.265625 0.296875 0.40625q0.203125 0.140625 0.46875 0.1875q0.265625 0.046875 0.5781174 0.046875l0.0625 0l0 0.796875l-3.2968674 0l0 -6.5625q0 -0.625 -0.109375 -1.09375q-0.109375 -0.484375 -0.34375 -0.8125q-0.234375 -0.34375 -0.625 -0.515625q-0.375 -0.171875 -0.921875 -0.171875q-0.625 0 -1.046875 0.25q-0.421875 0.25 -0.6875 0.6875q-0.25 0.421875 -0.359375 0.984375q-0.109375 0.546875 -0.109375 1.15625l0 4.015625q0 0.40625 0.125 0.671875q0.125 0.25 0.328125 0.390625q0.21875 0.125 0.5 0.171875q0.28125 0.03125 0.59375 0.03125l0.0625 0zm17.204994 -8.5625q-1.046875 0 -1.625 0.859375q-0.5625 0.859375 -0.671875 2.515625l4.375 0q0 -0.75 -0.125 -1.375q-0.109375 -0.625 -0.34375 -1.0625q-0.234375 -0.453125 -0.640625 -0.6875q-0.390625 -0.25 -0.96875 -0.25zm0.234375 9.546875q-1.03125 0 -1.859375 -0.34375q-0.8125 -0.359375 -1.375 -1.015625q-0.5625 -0.671875 -0.875 -1.640625q-0.296875 -0.96875 -0.296875 -2.203125q0 -2.671875 1.09375 -4.015625q1.09375 -1.34375 3.125 -1.34375q0.90625 0 1.640625 0.296875q0.734375 0.28125 1.25 0.859375q0.515625 0.5625 0.78125 1.421875q0.28125 0.84375 0.28125 1.96875l0 0.859375l-6.328125 0q0.015625 1.046875 0.203125 1.796875q0.1875 0.734375 0.546875 1.21875q0.359375 0.484375 0.875 0.71875q0.515625 0.21875 1.203125 0.21875q0.484375 0 0.90625 -0.109375q0.421875 -0.109375 0.765625 -0.296875q0.34375 -0.1875 0.609375 -0.421875q0.265625 -0.234375 0.4375 -0.5q0.125 0.0625 0.234375 0.234375q0.125 0.171875 0.125 0.421875q0 0.28125 -0.203125 0.609375q-0.203125 0.328125 -0.625 0.609375q-0.421875 0.28125 -1.046875 0.46875q-0.625 0.1875 -1.46875 0.1875zm9.562134 -1.0q0.34375 0 0.625 -0.03125q0.296875 -0.046875 0.59375 -0.109375l0 0.84375q-0.125 0.046875 -0.3125 0.109375q-0.1875 0.0625 -0.421875 0.09375q-0.234375 0.046875 -0.484375 0.0625q-0.25 0.03125 -0.46875 0.03125q-0.71875 0 -1.25 -0.15625q-0.515625 -0.15625 -0.84375 -0.5q-0.328125 -0.34375 -0.5 -0.90625q-0.15625 -0.5625 -0.15625 -1.375l0 -6.34375l-1.453125 0l0 -0.765625q0.34375 0 0.75 -0.140625q0.421875 -0.140625 0.734375 -0.46875q0.328125 -0.34375 0.515625 -0.828125q0.203125 -0.5 0.359375 -1.234375l0.875 0l0 2.34375l2.484375 0l0 1.09375l-2.484375 0l0 6.390625q0 0.984375 0.390625 1.4375q0.390625 0.453125 1.046875 0.453125zm7.6460724 0.8125l-5.484375 0l0 -0.796875l0.0625 0q0.328125 0 0.609375 -0.046875q0.28125 -0.046875 0.484375 -0.1875q0.21875 -0.140625 0.34375 -0.40625q0.125 -0.28125 0.125 -0.71875l0 -5.9375q0 -0.40625 -0.125 -0.65625q-0.125 -0.265625 -0.34375 -0.40625q-0.21875 -0.140625 -0.5 -0.1875q-0.28125 -0.046875 -0.59375 -0.046875l-0.0625 0l0 -0.796875l2.921875 0l0.375 1.890625l0.09375 0q0.171875 -0.4375 0.359375 -0.8125q0.203125 -0.375 0.484375 -0.65625q0.296875 -0.28125 0.703125 -0.4375q0.421875 -0.171875 1.046875 -0.171875q1.046875 0 1.546875 0.359375q0.515625 0.359375 0.515625 1.03125q0 0.296875 -0.109375 0.546875q-0.09375 0.25 -0.3125 0.4375q-0.203125 0.171875 -0.546875 0.265625q-0.328125 0.09375 -0.8125 0.09375q0 -0.78125 -0.21875 -1.125q-0.21875 -0.359375 -0.78125 -0.359375q-0.359375 0 -0.640625 0.203125q-0.265625 0.203125 -0.484375 0.53125q-0.203125 0.328125 -0.34375 0.765625q-0.140625 0.421875 -0.234375 0.875q-0.09375 0.4375 -0.125 0.890625q-0.03125 0.4375 -0.03125 0.796875l0 3.0q0 0.40625 0.125 0.671875q0.125 0.25 0.328125 0.390625q0.21875 0.125 0.5 0.171875q0.28125 0.03125 0.59375 0.03125l0.53125 0l0 0.796875zm12.603165 -5.109375q0 2.671875 -1.140625 3.984375q-1.140625 1.3125 -3.328125 1.3125q-1.03125 0 -1.84375 -0.328125q-0.8125 -0.328125 -1.390625 -0.984375q-0.5625 -0.65625 -0.875 -1.65625q-0.296875 -1.0 -0.296875 -2.328125q0 -2.671875 1.125 -3.96875q1.125 -1.296875 3.34375 -1.296875q1.03125 0 1.84375 0.328125q0.8125 0.3125 1.375 0.96875q0.578125 0.65625 0.875 1.640625q0.3125 0.984375 0.3125 2.328125zm-7.03125 0q0 1.0625 0.125 1.875q0.140625 0.796875 0.453125 1.34375q0.3125 0.53125 0.8125 0.8125q0.5 0.28125 1.21875 0.28125q0.703125 0 1.1875 -0.28125q0.5 -0.28125 0.796875 -0.8125q0.3125 -0.546875 0.453125 -1.34375q0.140625 -0.8125 0.140625 -1.875q0 -1.0625 -0.140625 -1.859375q-0.140625 -0.796875 -0.453125 -1.328125q-0.296875 -0.53125 -0.796875 -0.796875q-0.5 -0.28125 -1.21875 -0.28125q-0.703125 0 -1.203125 0.28125q-0.484375 0.265625 -0.796875 0.796875q-0.3125 0.53125 -0.453125 1.328125q-0.125 0.796875 -0.125 1.859375z" fill-rule="nonzero"/><path fill="#000000" fill-opacity="0.0" d="m483.1601 -15.425197l117.6037 0l0 117.603676l-117.6037 0z" fill-rule="nonzero"/><g transform="matrix(0.6030958005249344 0.0 0.0 0.6030958005249344 483.16010498687666 -15.4251968503937)"><clipPath id="g4478fbe96_167.7"><path d="m1.1368684E-13 0l195.0 0l0 195.0l-195.0 0z" clip-rule="nonzero"/></clipPath></g></g></svg>